<mxfile host="app.diagrams.net" agent="Mozilla/5.0 (Macintosh; Intel Mac OS X 10_15_7) AppleWebKit/537.36 (KHTML, like Gecko) Chrome/135.0.0.0 Safari/537.36" version="26.2.10">
  <diagram id="C5RBs43oDa-KdzZeNtuy" name="Page-1">
    <mxGraphModel dx="1707" dy="2271" grid="0" gridSize="10" guides="1" tooltips="1" connect="1" arrows="1" fold="1" page="0" pageScale="1" pageWidth="2336" pageHeight="1654" background="#ffffff" math="0" shadow="0" adaptiveColors="simple">
      <root>
        <mxCell id="WIyWlLk6GJQsqaUBKTNV-0" />
        <mxCell id="WIyWlLk6GJQsqaUBKTNV-1" parent="WIyWlLk6GJQsqaUBKTNV-0" />
        <mxCell id="N519lql4RB3Tmnlweifi-12" value="User" style="swimlane;fontStyle=1;align=center;verticalAlign=top;childLayout=stackLayout;horizontal=1;startSize=26;horizontalStack=0;resizeParent=1;resizeParentMax=0;resizeLast=0;collapsible=1;marginBottom=0;whiteSpace=wrap;html=1;rounded=1;labelBackgroundColor=none;fillColor=#FAE5C7;strokeColor=#0F8B8D;fontColor=#143642;" parent="WIyWlLk6GJQsqaUBKTNV-1" vertex="1">
          <mxGeometry x="1243" y="403" width="208" height="645" as="geometry" />
        </mxCell>
        <mxCell id="N519lql4RB3Tmnlweifi-13" value="- tarif: Tarif" style="text;strokeColor=none;fillColor=none;align=left;verticalAlign=top;spacingLeft=4;spacingRight=4;overflow=hidden;rotatable=0;points=[[0,0.5],[1,0.5]];portConstraint=eastwest;whiteSpace=wrap;html=1;rounded=1;labelBackgroundColor=none;fontColor=#143642;" parent="N519lql4RB3Tmnlweifi-12" vertex="1">
          <mxGeometry y="26" width="208" height="26" as="geometry" />
        </mxCell>
        <mxCell id="N519lql4RB3Tmnlweifi-53" value="- balance: number" style="text;strokeColor=none;fillColor=none;align=left;verticalAlign=top;spacingLeft=4;spacingRight=4;overflow=hidden;rotatable=0;points=[[0,0.5],[1,0.5]];portConstraint=eastwest;whiteSpace=wrap;html=1;rounded=1;labelBackgroundColor=none;fontColor=#143642;" parent="N519lql4RB3Tmnlweifi-12" vertex="1">
          <mxGeometry y="52" width="208" height="26" as="geometry" />
        </mxCell>
        <mxCell id="N519lql4RB3Tmnlweifi-54" value="- canRent: boolean" style="text;strokeColor=none;fillColor=none;align=left;verticalAlign=top;spacingLeft=4;spacingRight=4;overflow=hidden;rotatable=0;points=[[0,0.5],[1,0.5]];portConstraint=eastwest;whiteSpace=wrap;html=1;rounded=1;labelBackgroundColor=none;fontColor=#143642;" parent="N519lql4RB3Tmnlweifi-12" vertex="1">
          <mxGeometry y="78" width="208" height="26" as="geometry" />
        </mxCell>
        <mxCell id="N519lql4RB3Tmnlweifi-147" value="- location: Coordinate" style="text;strokeColor=none;fillColor=none;align=left;verticalAlign=top;spacingLeft=4;spacingRight=4;overflow=hidden;rotatable=0;points=[[0,0.5],[1,0.5]];portConstraint=eastwest;whiteSpace=wrap;html=1;rounded=1;labelBackgroundColor=none;fontColor=#143642;" parent="N519lql4RB3Tmnlweifi-12" vertex="1">
          <mxGeometry y="104" width="208" height="26" as="geometry" />
        </mxCell>
        <mxCell id="zjAkS0u6og-Pdvrt3DcL-391" value="- rent: Rent" style="text;strokeColor=none;fillColor=none;align=left;verticalAlign=top;spacingLeft=4;spacingRight=4;overflow=hidden;rotatable=0;points=[[0,0.5],[1,0.5]];portConstraint=eastwest;whiteSpace=wrap;html=1;fontColor=#143642;" vertex="1" parent="N519lql4RB3Tmnlweifi-12">
          <mxGeometry y="130" width="208" height="26" as="geometry" />
        </mxCell>
        <mxCell id="N519lql4RB3Tmnlweifi-14" value="" style="line;strokeWidth=1;fillColor=none;align=left;verticalAlign=middle;spacingTop=-1;spacingLeft=3;spacingRight=3;rotatable=0;labelPosition=right;points=[];portConstraint=eastwest;strokeColor=#0F8B8D;rounded=1;labelBackgroundColor=none;fontColor=#143642;" parent="N519lql4RB3Tmnlweifi-12" vertex="1">
          <mxGeometry y="156" width="208" height="8" as="geometry" />
        </mxCell>
        <mxCell id="N519lql4RB3Tmnlweifi-15" value="+ User(string)" style="text;strokeColor=none;fillColor=none;align=left;verticalAlign=top;spacingLeft=4;spacingRight=4;overflow=hidden;rotatable=0;points=[[0,0.5],[1,0.5]];portConstraint=eastwest;whiteSpace=wrap;html=1;rounded=1;labelBackgroundColor=none;fontColor=#143642;" parent="N519lql4RB3Tmnlweifi-12" vertex="1">
          <mxGeometry y="164" width="208" height="26" as="geometry" />
        </mxCell>
        <mxCell id="zjAkS0u6og-Pdvrt3DcL-388" value="+ lookForVehicle(Application)" style="text;strokeColor=none;fillColor=none;align=left;verticalAlign=top;spacingLeft=4;spacingRight=4;overflow=hidden;rotatable=0;points=[[0,0.5],[1,0.5]];portConstraint=eastwest;whiteSpace=wrap;html=1;rounded=1;labelBackgroundColor=none;fontColor=#143642;" vertex="1" parent="N519lql4RB3Tmnlweifi-12">
          <mxGeometry y="190" width="208" height="26" as="geometry" />
        </mxCell>
        <mxCell id="zjAkS0u6og-Pdvrt3DcL-389" value="+ lookForBase(Application)" style="text;strokeColor=none;fillColor=none;align=left;verticalAlign=top;spacingLeft=4;spacingRight=4;overflow=hidden;rotatable=0;points=[[0,0.5],[1,0.5]];portConstraint=eastwest;whiteSpace=wrap;html=1;rounded=1;labelBackgroundColor=none;fontColor=#143642;" vertex="1" parent="N519lql4RB3Tmnlweifi-12">
          <mxGeometry y="216" width="208" height="26" as="geometry" />
        </mxCell>
        <mxCell id="zjAkS0u6og-Pdvrt3DcL-387" value="+ checkAvailability(Base)" style="text;strokeColor=none;fillColor=none;align=left;verticalAlign=top;spacingLeft=4;spacingRight=4;overflow=hidden;rotatable=0;points=[[0,0.5],[1,0.5]];portConstraint=eastwest;whiteSpace=wrap;html=1;rounded=1;labelBackgroundColor=none;fontColor=#143642;" vertex="1" parent="N519lql4RB3Tmnlweifi-12">
          <mxGeometry y="242" width="208" height="26" as="geometry" />
        </mxCell>
        <mxCell id="zjAkS0u6og-Pdvrt3DcL-312" value="+ checkBattery(Vehicle)" style="text;strokeColor=none;fillColor=none;align=left;verticalAlign=top;spacingLeft=4;spacingRight=4;overflow=hidden;rotatable=0;points=[[0,0.5],[1,0.5]];portConstraint=eastwest;whiteSpace=wrap;html=1;rounded=1;labelBackgroundColor=none;fontColor=#143642;" vertex="1" parent="N519lql4RB3Tmnlweifi-12">
          <mxGeometry y="268" width="208" height="26" as="geometry" />
        </mxCell>
        <mxCell id="N519lql4RB3Tmnlweifi-59" value="+ startRent(Vehicle, Tarif, Date)" style="text;strokeColor=none;fillColor=none;align=left;verticalAlign=top;spacingLeft=4;spacingRight=4;overflow=hidden;rotatable=0;points=[[0,0.5],[1,0.5]];portConstraint=eastwest;whiteSpace=wrap;html=1;rounded=1;labelBackgroundColor=none;fontColor=#143642;" parent="N519lql4RB3Tmnlweifi-12" vertex="1">
          <mxGeometry y="294" width="208" height="26" as="geometry" />
        </mxCell>
        <mxCell id="zjAkS0u6og-Pdvrt3DcL-390" value="+ stopRent(Vehicle, Date)" style="text;strokeColor=none;fillColor=none;align=left;verticalAlign=top;spacingLeft=4;spacingRight=4;overflow=hidden;rotatable=0;points=[[0,0.5],[1,0.5]];portConstraint=eastwest;whiteSpace=wrap;html=1;rounded=1;labelBackgroundColor=none;fontColor=#143642;" vertex="1" parent="N519lql4RB3Tmnlweifi-12">
          <mxGeometry y="320" width="208" height="26" as="geometry" />
        </mxCell>
        <mxCell id="zjAkS0u6og-Pdvrt3DcL-392" value="+ startRent(Base, Date)" style="text;strokeColor=none;fillColor=none;align=left;verticalAlign=top;spacingLeft=4;spacingRight=4;overflow=hidden;rotatable=0;points=[[0,0.5],[1,0.5]];portConstraint=eastwest;whiteSpace=wrap;html=1;rounded=1;labelBackgroundColor=none;fontColor=#143642;" vertex="1" parent="N519lql4RB3Tmnlweifi-12">
          <mxGeometry y="346" width="208" height="26" as="geometry" />
        </mxCell>
        <mxCell id="zjAkS0u6og-Pdvrt3DcL-393" value="+ stopRent(Base, Date)" style="text;strokeColor=none;fillColor=none;align=left;verticalAlign=top;spacingLeft=4;spacingRight=4;overflow=hidden;rotatable=0;points=[[0,0.5],[1,0.5]];portConstraint=eastwest;whiteSpace=wrap;html=1;rounded=1;labelBackgroundColor=none;fontColor=#143642;" vertex="1" parent="N519lql4RB3Tmnlweifi-12">
          <mxGeometry y="372" width="208" height="26" as="geometry" />
        </mxCell>
        <mxCell id="zjAkS0u6og-Pdvrt3DcL-308" value="+ notifyIssue(IssueType, Coordinate, Application)" style="text;strokeColor=none;fillColor=none;align=left;verticalAlign=top;spacingLeft=4;spacingRight=4;overflow=hidden;rotatable=0;points=[[0,0.5],[1,0.5]];portConstraint=eastwest;whiteSpace=wrap;html=1;rounded=1;labelBackgroundColor=none;fontColor=#143642;" vertex="1" parent="N519lql4RB3Tmnlweifi-12">
          <mxGeometry y="398" width="208" height="39" as="geometry" />
        </mxCell>
        <mxCell id="zjAkS0u6og-Pdvrt3DcL-438" value="+ checkHistory(Application)" style="text;strokeColor=none;fillColor=none;align=left;verticalAlign=top;spacingLeft=4;spacingRight=4;overflow=hidden;rotatable=0;points=[[0,0.5],[1,0.5]];portConstraint=eastwest;whiteSpace=wrap;html=1;fontColor=#143642;" vertex="1" parent="N519lql4RB3Tmnlweifi-12">
          <mxGeometry y="437" width="208" height="26" as="geometry" />
        </mxCell>
        <mxCell id="zjAkS0u6og-Pdvrt3DcL-311" value="+ addMoney(int)" style="text;strokeColor=none;fillColor=none;align=left;verticalAlign=top;spacingLeft=4;spacingRight=4;overflow=hidden;rotatable=0;points=[[0,0.5],[1,0.5]];portConstraint=eastwest;whiteSpace=wrap;html=1;rounded=1;labelBackgroundColor=none;fontColor=#143642;" vertex="1" parent="N519lql4RB3Tmnlweifi-12">
          <mxGeometry y="463" width="208" height="26" as="geometry" />
        </mxCell>
        <mxCell id="zjAkS0u6og-Pdvrt3DcL-439" value="+ getBalance(): int" style="text;strokeColor=none;fillColor=none;align=left;verticalAlign=top;spacingLeft=4;spacingRight=4;overflow=hidden;rotatable=0;points=[[0,0.5],[1,0.5]];portConstraint=eastwest;whiteSpace=wrap;html=1;fontColor=#143642;" vertex="1" parent="N519lql4RB3Tmnlweifi-12">
          <mxGeometry y="489" width="208" height="26" as="geometry" />
        </mxCell>
        <mxCell id="zjAkS0u6og-Pdvrt3DcL-309" value="- park(Vehicle)" style="text;strokeColor=none;fillColor=none;align=left;verticalAlign=top;spacingLeft=4;spacingRight=4;overflow=hidden;rotatable=0;points=[[0,0.5],[1,0.5]];portConstraint=eastwest;whiteSpace=wrap;html=1;rounded=1;labelBackgroundColor=none;fontColor=#143642;" vertex="1" parent="N519lql4RB3Tmnlweifi-12">
          <mxGeometry y="515" width="208" height="26" as="geometry" />
        </mxCell>
        <mxCell id="zjAkS0u6og-Pdvrt3DcL-310" value="- payRent(Vehicle)" style="text;strokeColor=none;fillColor=none;align=left;verticalAlign=top;spacingLeft=4;spacingRight=4;overflow=hidden;rotatable=0;points=[[0,0.5],[1,0.5]];portConstraint=eastwest;whiteSpace=wrap;html=1;rounded=1;labelBackgroundColor=none;fontColor=#143642;" vertex="1" parent="N519lql4RB3Tmnlweifi-12">
          <mxGeometry y="541" width="208" height="26" as="geometry" />
        </mxCell>
        <mxCell id="zjAkS0u6og-Pdvrt3DcL-313" value="- checkAvailability(Vehicle)" style="text;strokeColor=none;fillColor=none;align=left;verticalAlign=top;spacingLeft=4;spacingRight=4;overflow=hidden;rotatable=0;points=[[0,0.5],[1,0.5]];portConstraint=eastwest;whiteSpace=wrap;html=1;rounded=1;labelBackgroundColor=none;fontColor=#143642;" vertex="1" parent="N519lql4RB3Tmnlweifi-12">
          <mxGeometry y="567" width="208" height="26" as="geometry" />
        </mxCell>
        <mxCell id="zjAkS0u6og-Pdvrt3DcL-314" value="- notifyDebt()" style="text;strokeColor=none;fillColor=none;align=left;verticalAlign=top;spacingLeft=4;spacingRight=4;overflow=hidden;rotatable=0;points=[[0,0.5],[1,0.5]];portConstraint=eastwest;whiteSpace=wrap;html=1;rounded=1;labelBackgroundColor=none;fontColor=#143642;" vertex="1" parent="N519lql4RB3Tmnlweifi-12">
          <mxGeometry y="593" width="208" height="26" as="geometry" />
        </mxCell>
        <mxCell id="zjAkS0u6og-Pdvrt3DcL-315" value="- checkDebt()" style="text;strokeColor=none;fillColor=none;align=left;verticalAlign=top;spacingLeft=4;spacingRight=4;overflow=hidden;rotatable=0;points=[[0,0.5],[1,0.5]];portConstraint=eastwest;whiteSpace=wrap;html=1;rounded=1;labelBackgroundColor=none;fontColor=#143642;" vertex="1" parent="N519lql4RB3Tmnlweifi-12">
          <mxGeometry y="619" width="208" height="26" as="geometry" />
        </mxCell>
        <mxCell id="N519lql4RB3Tmnlweifi-16" value="Employee" style="swimlane;fontStyle=1;align=center;verticalAlign=top;childLayout=stackLayout;horizontal=1;startSize=26;horizontalStack=0;resizeParent=1;resizeParentMax=0;resizeLast=0;collapsible=1;marginBottom=0;whiteSpace=wrap;html=1;rounded=1;labelBackgroundColor=none;fillColor=#FAE5C7;strokeColor=#0F8B8D;fontColor=#143642;" parent="WIyWlLk6GJQsqaUBKTNV-1" vertex="1">
          <mxGeometry x="1480" y="403" width="160" height="138" as="geometry" />
        </mxCell>
        <mxCell id="zjAkS0u6og-Pdvrt3DcL-189" value="- role: Role" style="text;strokeColor=none;fillColor=none;align=left;verticalAlign=top;spacingLeft=4;spacingRight=4;overflow=hidden;rotatable=0;points=[[0,0.5],[1,0.5]];portConstraint=eastwest;whiteSpace=wrap;html=1;fontColor=#143642;" vertex="1" parent="N519lql4RB3Tmnlweifi-16">
          <mxGeometry y="26" width="160" height="26" as="geometry" />
        </mxCell>
        <mxCell id="zjAkS0u6og-Pdvrt3DcL-249" value="" style="line;strokeWidth=1;fillColor=none;align=left;verticalAlign=middle;spacingTop=-1;spacingLeft=3;spacingRight=3;rotatable=0;labelPosition=right;points=[];portConstraint=eastwest;strokeColor=inherit;fontColor=#143642;" vertex="1" parent="N519lql4RB3Tmnlweifi-16">
          <mxGeometry y="52" width="160" height="8" as="geometry" />
        </mxCell>
        <mxCell id="zjAkS0u6og-Pdvrt3DcL-261" value="+ Employee(Role)" style="text;strokeColor=none;fillColor=none;align=left;verticalAlign=top;spacingLeft=4;spacingRight=4;overflow=hidden;rotatable=0;points=[[0,0.5],[1,0.5]];portConstraint=eastwest;whiteSpace=wrap;html=1;fontColor=#143642;" vertex="1" parent="N519lql4RB3Tmnlweifi-16">
          <mxGeometry y="60" width="160" height="26" as="geometry" />
        </mxCell>
        <mxCell id="zjAkS0u6og-Pdvrt3DcL-262" value="- setName(string)" style="text;strokeColor=none;fillColor=none;align=left;verticalAlign=top;spacingLeft=4;spacingRight=4;overflow=hidden;rotatable=0;points=[[0,0.5],[1,0.5]];portConstraint=eastwest;whiteSpace=wrap;html=1;fontColor=#143642;" vertex="1" parent="N519lql4RB3Tmnlweifi-16">
          <mxGeometry y="86" width="160" height="26" as="geometry" />
        </mxCell>
        <mxCell id="zjAkS0u6og-Pdvrt3DcL-250" value="- setRole(Role)" style="text;strokeColor=none;fillColor=none;align=left;verticalAlign=top;spacingLeft=4;spacingRight=4;overflow=hidden;rotatable=0;points=[[0,0.5],[1,0.5]];portConstraint=eastwest;whiteSpace=wrap;html=1;fontColor=#143642;" vertex="1" parent="N519lql4RB3Tmnlweifi-16">
          <mxGeometry y="112" width="160" height="26" as="geometry" />
        </mxCell>
        <mxCell id="N519lql4RB3Tmnlweifi-33" value="&lt;i&gt;Tarif&lt;/i&gt;" style="swimlane;fontStyle=0;childLayout=stackLayout;horizontal=1;startSize=26;fillColor=none;horizontalStack=0;resizeParent=1;resizeParentMax=0;resizeLast=0;collapsible=1;marginBottom=0;whiteSpace=wrap;html=1;rounded=1;labelBackgroundColor=none;strokeColor=#0F8B8D;fontColor=#143642;" parent="WIyWlLk6GJQsqaUBKTNV-1" vertex="1">
          <mxGeometry x="972" y="604.5" width="140" height="242" as="geometry" />
        </mxCell>
        <mxCell id="N519lql4RB3Tmnlweifi-90" value="- penalty: number" style="text;strokeColor=none;fillColor=none;align=left;verticalAlign=top;spacingLeft=4;spacingRight=4;overflow=hidden;rotatable=0;points=[[0,0.5],[1,0.5]];portConstraint=eastwest;whiteSpace=wrap;html=1;rounded=1;labelBackgroundColor=none;fontColor=#143642;" parent="N519lql4RB3Tmnlweifi-33" vertex="1">
          <mxGeometry y="26" width="140" height="26" as="geometry" />
        </mxCell>
        <mxCell id="N519lql4RB3Tmnlweifi-87" value="- price: number" style="text;strokeColor=none;fillColor=none;align=left;verticalAlign=top;spacingLeft=4;spacingRight=4;overflow=hidden;rotatable=0;points=[[0,0.5],[1,0.5]];portConstraint=eastwest;whiteSpace=wrap;html=1;rounded=1;labelBackgroundColor=none;fontColor=#143642;" parent="N519lql4RB3Tmnlweifi-33" vertex="1">
          <mxGeometry y="52" width="140" height="26" as="geometry" />
        </mxCell>
        <mxCell id="N519lql4RB3Tmnlweifi-91" value="- totalToPay: number" style="text;strokeColor=none;fillColor=none;align=left;verticalAlign=top;spacingLeft=4;spacingRight=4;overflow=hidden;rotatable=0;points=[[0,0.5],[1,0.5]];portConstraint=eastwest;whiteSpace=wrap;html=1;rounded=1;labelBackgroundColor=none;fontColor=#143642;" parent="N519lql4RB3Tmnlweifi-33" vertex="1">
          <mxGeometry y="78" width="140" height="26" as="geometry" />
        </mxCell>
        <mxCell id="zjAkS0u6og-Pdvrt3DcL-300" value="- type: TarifType" style="text;strokeColor=none;fillColor=none;align=left;verticalAlign=top;spacingLeft=4;spacingRight=4;overflow=hidden;rotatable=0;points=[[0,0.5],[1,0.5]];portConstraint=eastwest;whiteSpace=wrap;html=1;rounded=1;labelBackgroundColor=none;fontColor=#143642;" vertex="1" parent="N519lql4RB3Tmnlweifi-33">
          <mxGeometry y="104" width="140" height="26" as="geometry" />
        </mxCell>
        <mxCell id="N519lql4RB3Tmnlweifi-88" value="" style="line;strokeWidth=1;fillColor=none;align=left;verticalAlign=middle;spacingTop=-1;spacingLeft=3;spacingRight=3;rotatable=0;labelPosition=right;points=[];portConstraint=eastwest;strokeColor=#0F8B8D;rounded=1;labelBackgroundColor=none;fontColor=#143642;" parent="N519lql4RB3Tmnlweifi-33" vertex="1">
          <mxGeometry y="130" width="140" height="8" as="geometry" />
        </mxCell>
        <mxCell id="zjAkS0u6og-Pdvrt3DcL-441" value="+ Tarif()" style="text;strokeColor=none;fillColor=none;align=left;verticalAlign=top;spacingLeft=4;spacingRight=4;overflow=hidden;rotatable=0;points=[[0,0.5],[1,0.5]];portConstraint=eastwest;whiteSpace=wrap;html=1;fontColor=#143642;" vertex="1" parent="N519lql4RB3Tmnlweifi-33">
          <mxGeometry y="138" width="140" height="26" as="geometry" />
        </mxCell>
        <mxCell id="N519lql4RB3Tmnlweifi-93" value="+ getTotalToPay()" style="text;strokeColor=none;fillColor=none;align=left;verticalAlign=top;spacingLeft=4;spacingRight=4;overflow=hidden;rotatable=0;points=[[0,0.5],[1,0.5]];portConstraint=eastwest;whiteSpace=wrap;html=1;rounded=1;labelBackgroundColor=none;fontColor=#143642;" parent="N519lql4RB3Tmnlweifi-33" vertex="1">
          <mxGeometry y="164" width="140" height="26" as="geometry" />
        </mxCell>
        <mxCell id="N519lql4RB3Tmnlweifi-52" value="- calculateTotal(penalty)" style="text;strokeColor=none;fillColor=none;align=left;verticalAlign=top;spacingLeft=4;spacingRight=4;overflow=hidden;rotatable=0;points=[[0,0.5],[1,0.5]];portConstraint=eastwest;whiteSpace=wrap;html=1;rounded=1;labelBackgroundColor=none;fontColor=#143642;" parent="N519lql4RB3Tmnlweifi-33" vertex="1">
          <mxGeometry y="190" width="140" height="26" as="geometry" />
        </mxCell>
        <mxCell id="zjAkS0u6og-Pdvrt3DcL-440" value="+ reserve()" style="text;strokeColor=none;fillColor=none;align=left;verticalAlign=top;spacingLeft=4;spacingRight=4;overflow=hidden;rotatable=0;points=[[0,0.5],[1,0.5]];portConstraint=eastwest;whiteSpace=wrap;html=1;fontColor=#143642;" vertex="1" parent="N519lql4RB3Tmnlweifi-33">
          <mxGeometry y="216" width="140" height="26" as="geometry" />
        </mxCell>
        <mxCell id="N519lql4RB3Tmnlweifi-117" value="Map" style="swimlane;fontStyle=1;align=center;verticalAlign=top;childLayout=stackLayout;horizontal=1;startSize=26;horizontalStack=0;resizeParent=1;resizeParentMax=0;resizeLast=0;collapsible=1;marginBottom=0;whiteSpace=wrap;html=1;rounded=1;labelBackgroundColor=none;fillColor=#FAE5C7;strokeColor=#0F8B8D;fontColor=#143642;" parent="WIyWlLk6GJQsqaUBKTNV-1" vertex="1">
          <mxGeometry x="628" y="-223" width="175" height="164" as="geometry" />
        </mxCell>
        <mxCell id="N519lql4RB3Tmnlweifi-118" value="- xLimit: number" style="text;strokeColor=none;fillColor=none;align=left;verticalAlign=top;spacingLeft=4;spacingRight=4;overflow=hidden;rotatable=0;points=[[0,0.5],[1,0.5]];portConstraint=eastwest;whiteSpace=wrap;html=1;rounded=1;labelBackgroundColor=none;fontColor=#143642;" parent="N519lql4RB3Tmnlweifi-117" vertex="1">
          <mxGeometry y="26" width="175" height="26" as="geometry" />
        </mxCell>
        <mxCell id="N519lql4RB3Tmnlweifi-121" value="- yLimit: number" style="text;strokeColor=none;fillColor=none;align=left;verticalAlign=top;spacingLeft=4;spacingRight=4;overflow=hidden;rotatable=0;points=[[0,0.5],[1,0.5]];portConstraint=eastwest;whiteSpace=wrap;html=1;rounded=1;labelBackgroundColor=none;fontColor=#143642;" parent="N519lql4RB3Tmnlweifi-117" vertex="1">
          <mxGeometry y="52" width="175" height="26" as="geometry" />
        </mxCell>
        <mxCell id="N519lql4RB3Tmnlweifi-122" value="- mapSize: number" style="text;strokeColor=none;fillColor=none;align=left;verticalAlign=top;spacingLeft=4;spacingRight=4;overflow=hidden;rotatable=0;points=[[0,0.5],[1,0.5]];portConstraint=eastwest;whiteSpace=wrap;html=1;rounded=1;labelBackgroundColor=none;fontColor=#143642;" parent="N519lql4RB3Tmnlweifi-117" vertex="1">
          <mxGeometry y="78" width="175" height="26" as="geometry" />
        </mxCell>
        <mxCell id="N519lql4RB3Tmnlweifi-146" value="- coordinate: Coordinate" style="text;strokeColor=none;fillColor=none;align=left;verticalAlign=top;spacingLeft=4;spacingRight=4;overflow=hidden;rotatable=0;points=[[0,0.5],[1,0.5]];portConstraint=eastwest;whiteSpace=wrap;html=1;rounded=1;labelBackgroundColor=none;fontColor=#143642;" parent="N519lql4RB3Tmnlweifi-117" vertex="1">
          <mxGeometry y="104" width="175" height="26" as="geometry" />
        </mxCell>
        <mxCell id="N519lql4RB3Tmnlweifi-119" value="" style="line;strokeWidth=1;fillColor=none;align=left;verticalAlign=middle;spacingTop=-1;spacingLeft=3;spacingRight=3;rotatable=0;labelPosition=right;points=[];portConstraint=eastwest;strokeColor=#0F8B8D;rounded=1;labelBackgroundColor=none;fontColor=#143642;" parent="N519lql4RB3Tmnlweifi-117" vertex="1">
          <mxGeometry y="130" width="175" height="8" as="geometry" />
        </mxCell>
        <mxCell id="N519lql4RB3Tmnlweifi-124" value="+ checkLocation(coordinate)" style="text;strokeColor=none;fillColor=none;align=left;verticalAlign=top;spacingLeft=4;spacingRight=4;overflow=hidden;rotatable=0;points=[[0,0.5],[1,0.5]];portConstraint=eastwest;whiteSpace=wrap;html=1;rounded=1;labelBackgroundColor=none;fontColor=#143642;" parent="N519lql4RB3Tmnlweifi-117" vertex="1">
          <mxGeometry y="138" width="175" height="26" as="geometry" />
        </mxCell>
        <mxCell id="N519lql4RB3Tmnlweifi-128" value="Coordinate" style="swimlane;fontStyle=1;align=center;verticalAlign=top;childLayout=stackLayout;horizontal=1;startSize=26;horizontalStack=0;resizeParent=1;resizeParentMax=0;resizeLast=0;collapsible=1;marginBottom=0;whiteSpace=wrap;html=1;rounded=1;labelBackgroundColor=none;fillColor=#FAE5C7;strokeColor=#0F8B8D;fontColor=#143642;" parent="WIyWlLk6GJQsqaUBKTNV-1" vertex="1">
          <mxGeometry x="671" y="1026" width="160" height="112" as="geometry" />
        </mxCell>
        <mxCell id="N519lql4RB3Tmnlweifi-129" value="- xPoint: number" style="text;strokeColor=none;fillColor=none;align=left;verticalAlign=top;spacingLeft=4;spacingRight=4;overflow=hidden;rotatable=0;points=[[0,0.5],[1,0.5]];portConstraint=eastwest;whiteSpace=wrap;html=1;rounded=1;labelBackgroundColor=none;fontColor=#143642;" parent="N519lql4RB3Tmnlweifi-128" vertex="1">
          <mxGeometry y="26" width="160" height="26" as="geometry" />
        </mxCell>
        <mxCell id="N519lql4RB3Tmnlweifi-132" value="- yPoint: number" style="text;strokeColor=none;fillColor=none;align=left;verticalAlign=top;spacingLeft=4;spacingRight=4;overflow=hidden;rotatable=0;points=[[0,0.5],[1,0.5]];portConstraint=eastwest;whiteSpace=wrap;html=1;rounded=1;labelBackgroundColor=none;fontColor=#143642;" parent="N519lql4RB3Tmnlweifi-128" vertex="1">
          <mxGeometry y="52" width="160" height="26" as="geometry" />
        </mxCell>
        <mxCell id="N519lql4RB3Tmnlweifi-130" value="" style="line;strokeWidth=1;fillColor=none;align=left;verticalAlign=middle;spacingTop=-1;spacingLeft=3;spacingRight=3;rotatable=0;labelPosition=right;points=[];portConstraint=eastwest;strokeColor=#0F8B8D;rounded=1;labelBackgroundColor=none;fontColor=#143642;" parent="N519lql4RB3Tmnlweifi-128" vertex="1">
          <mxGeometry y="78" width="160" height="8" as="geometry" />
        </mxCell>
        <mxCell id="N519lql4RB3Tmnlweifi-131" value="+ getCoordinate()" style="text;strokeColor=none;fillColor=none;align=left;verticalAlign=top;spacingLeft=4;spacingRight=4;overflow=hidden;rotatable=0;points=[[0,0.5],[1,0.5]];portConstraint=eastwest;whiteSpace=wrap;html=1;rounded=1;labelBackgroundColor=none;fontColor=#143642;" parent="N519lql4RB3Tmnlweifi-128" vertex="1">
          <mxGeometry y="86" width="160" height="26" as="geometry" />
        </mxCell>
        <mxCell id="N519lql4RB3Tmnlweifi-155" value="Battery" style="swimlane;fontStyle=1;align=center;verticalAlign=top;childLayout=stackLayout;horizontal=1;startSize=26;horizontalStack=0;resizeParent=1;resizeParentMax=0;resizeLast=0;collapsible=1;marginBottom=0;whiteSpace=wrap;html=1;rounded=1;labelBackgroundColor=none;fillColor=#FAE5C7;strokeColor=#0F8B8D;fontColor=#143642;" parent="WIyWlLk6GJQsqaUBKTNV-1" vertex="1">
          <mxGeometry x="1040" y="1026" width="160" height="164" as="geometry" />
        </mxCell>
        <mxCell id="N519lql4RB3Tmnlweifi-156" value="- charge: number" style="text;strokeColor=none;fillColor=none;align=left;verticalAlign=top;spacingLeft=4;spacingRight=4;overflow=hidden;rotatable=0;points=[[0,0.5],[1,0.5]];portConstraint=eastwest;whiteSpace=wrap;html=1;rounded=1;labelBackgroundColor=none;fontColor=#143642;" parent="N519lql4RB3Tmnlweifi-155" vertex="1">
          <mxGeometry y="26" width="160" height="26" as="geometry" />
        </mxCell>
        <mxCell id="N519lql4RB3Tmnlweifi-166" value="- lowLimit: number" style="text;strokeColor=none;fillColor=none;align=left;verticalAlign=top;spacingLeft=4;spacingRight=4;overflow=hidden;rotatable=0;points=[[0,0.5],[1,0.5]];portConstraint=eastwest;whiteSpace=wrap;html=1;rounded=1;labelBackgroundColor=none;fontColor=#143642;" parent="N519lql4RB3Tmnlweifi-155" vertex="1">
          <mxGeometry y="52" width="160" height="26" as="geometry" />
        </mxCell>
        <mxCell id="N519lql4RB3Tmnlweifi-157" value="" style="line;strokeWidth=1;fillColor=none;align=left;verticalAlign=middle;spacingTop=-1;spacingLeft=3;spacingRight=3;rotatable=0;labelPosition=right;points=[];portConstraint=eastwest;strokeColor=#0F8B8D;rounded=1;labelBackgroundColor=none;fontColor=#143642;" parent="N519lql4RB3Tmnlweifi-155" vertex="1">
          <mxGeometry y="78" width="160" height="8" as="geometry" />
        </mxCell>
        <mxCell id="N519lql4RB3Tmnlweifi-167" value="+ getCharge()" style="text;strokeColor=none;fillColor=none;align=left;verticalAlign=top;spacingLeft=4;spacingRight=4;overflow=hidden;rotatable=0;points=[[0,0.5],[1,0.5]];portConstraint=eastwest;whiteSpace=wrap;html=1;rounded=1;labelBackgroundColor=none;fontColor=#143642;" parent="N519lql4RB3Tmnlweifi-155" vertex="1">
          <mxGeometry y="86" width="160" height="26" as="geometry" />
        </mxCell>
        <mxCell id="N519lql4RB3Tmnlweifi-168" value="+ getLowLimit()" style="text;strokeColor=none;fillColor=none;align=left;verticalAlign=top;spacingLeft=4;spacingRight=4;overflow=hidden;rotatable=0;points=[[0,0.5],[1,0.5]];portConstraint=eastwest;whiteSpace=wrap;html=1;rounded=1;labelBackgroundColor=none;fontColor=#143642;" parent="N519lql4RB3Tmnlweifi-155" vertex="1">
          <mxGeometry y="112" width="160" height="26" as="geometry" />
        </mxCell>
        <mxCell id="N519lql4RB3Tmnlweifi-158" value="- setLowLimit(number)" style="text;strokeColor=none;fillColor=none;align=left;verticalAlign=top;spacingLeft=4;spacingRight=4;overflow=hidden;rotatable=0;points=[[0,0.5],[1,0.5]];portConstraint=eastwest;whiteSpace=wrap;html=1;rounded=1;labelBackgroundColor=none;fontColor=#143642;" parent="N519lql4RB3Tmnlweifi-155" vertex="1">
          <mxGeometry y="138" width="160" height="26" as="geometry" />
        </mxCell>
        <mxCell id="N519lql4RB3Tmnlweifi-172" value="Bike" style="swimlane;fontStyle=1;align=center;verticalAlign=top;childLayout=stackLayout;horizontal=1;startSize=26;horizontalStack=0;resizeParent=1;resizeParentMax=0;resizeLast=0;collapsible=1;marginBottom=0;whiteSpace=wrap;html=1;rounded=1;labelBackgroundColor=none;fillColor=#FAE5C7;strokeColor=#0F8B8D;fontColor=#143642;" parent="WIyWlLk6GJQsqaUBKTNV-1" vertex="1">
          <mxGeometry x="1165" y="1280" width="160" height="86" as="geometry" />
        </mxCell>
        <mxCell id="N519lql4RB3Tmnlweifi-173" value="- base: Base" style="text;strokeColor=none;fillColor=none;align=left;verticalAlign=top;spacingLeft=4;spacingRight=4;overflow=hidden;rotatable=0;points=[[0,0.5],[1,0.5]];portConstraint=eastwest;whiteSpace=wrap;html=1;rounded=1;labelBackgroundColor=none;fontColor=#143642;" parent="N519lql4RB3Tmnlweifi-172" vertex="1">
          <mxGeometry y="26" width="160" height="26" as="geometry" />
        </mxCell>
        <mxCell id="N519lql4RB3Tmnlweifi-174" value="" style="line;strokeWidth=1;fillColor=none;align=left;verticalAlign=middle;spacingTop=-1;spacingLeft=3;spacingRight=3;rotatable=0;labelPosition=right;points=[];portConstraint=eastwest;strokeColor=#0F8B8D;rounded=1;labelBackgroundColor=none;fontColor=#143642;" parent="N519lql4RB3Tmnlweifi-172" vertex="1">
          <mxGeometry y="52" width="160" height="8" as="geometry" />
        </mxCell>
        <mxCell id="N519lql4RB3Tmnlweifi-175" value="+ method(type): type" style="text;strokeColor=none;fillColor=none;align=left;verticalAlign=top;spacingLeft=4;spacingRight=4;overflow=hidden;rotatable=0;points=[[0,0.5],[1,0.5]];portConstraint=eastwest;whiteSpace=wrap;html=1;rounded=1;labelBackgroundColor=none;fontColor=#143642;" parent="N519lql4RB3Tmnlweifi-172" vertex="1">
          <mxGeometry y="60" width="160" height="26" as="geometry" />
        </mxCell>
        <mxCell id="N519lql4RB3Tmnlweifi-176" value="Scooter" style="swimlane;fontStyle=1;align=center;verticalAlign=top;childLayout=stackLayout;horizontal=1;startSize=26;horizontalStack=0;resizeParent=1;resizeParentMax=0;resizeLast=0;collapsible=1;marginBottom=0;whiteSpace=wrap;html=1;rounded=1;labelBackgroundColor=none;fillColor=#FAE5C7;strokeColor=#0F8B8D;fontColor=#143642;" parent="WIyWlLk6GJQsqaUBKTNV-1" vertex="1">
          <mxGeometry x="1343" y="1280" width="160" height="86" as="geometry" />
        </mxCell>
        <mxCell id="N519lql4RB3Tmnlweifi-177" value="- base: Base" style="text;strokeColor=none;fillColor=none;align=left;verticalAlign=top;spacingLeft=4;spacingRight=4;overflow=hidden;rotatable=0;points=[[0,0.5],[1,0.5]];portConstraint=eastwest;whiteSpace=wrap;html=1;rounded=1;labelBackgroundColor=none;fontColor=#143642;" parent="N519lql4RB3Tmnlweifi-176" vertex="1">
          <mxGeometry y="26" width="160" height="26" as="geometry" />
        </mxCell>
        <mxCell id="N519lql4RB3Tmnlweifi-178" value="" style="line;strokeWidth=1;fillColor=none;align=left;verticalAlign=middle;spacingTop=-1;spacingLeft=3;spacingRight=3;rotatable=0;labelPosition=right;points=[];portConstraint=eastwest;strokeColor=#0F8B8D;rounded=1;labelBackgroundColor=none;fontColor=#143642;" parent="N519lql4RB3Tmnlweifi-176" vertex="1">
          <mxGeometry y="52" width="160" height="8" as="geometry" />
        </mxCell>
        <mxCell id="N519lql4RB3Tmnlweifi-179" value="+ method(type): type" style="text;strokeColor=none;fillColor=none;align=left;verticalAlign=top;spacingLeft=4;spacingRight=4;overflow=hidden;rotatable=0;points=[[0,0.5],[1,0.5]];portConstraint=eastwest;whiteSpace=wrap;html=1;rounded=1;labelBackgroundColor=none;fontColor=#143642;" parent="N519lql4RB3Tmnlweifi-176" vertex="1">
          <mxGeometry y="60" width="160" height="26" as="geometry" />
        </mxCell>
        <mxCell id="N519lql4RB3Tmnlweifi-180" value="Motorbike" style="swimlane;fontStyle=1;align=center;verticalAlign=top;childLayout=stackLayout;horizontal=1;startSize=26;horizontalStack=0;resizeParent=1;resizeParentMax=0;resizeLast=0;collapsible=1;marginBottom=0;whiteSpace=wrap;html=1;rounded=1;labelBackgroundColor=none;fillColor=#FAE5C7;strokeColor=#0F8B8D;fontColor=#143642;" parent="WIyWlLk6GJQsqaUBKTNV-1" vertex="1">
          <mxGeometry x="1520" y="1280" width="160" height="86" as="geometry">
            <mxRectangle x="1560" y="1340" width="90" height="30" as="alternateBounds" />
          </mxGeometry>
        </mxCell>
        <mxCell id="N519lql4RB3Tmnlweifi-181" value="- size: Size" style="text;strokeColor=none;fillColor=none;align=left;verticalAlign=top;spacingLeft=4;spacingRight=4;overflow=hidden;rotatable=0;points=[[0,0.5],[1,0.5]];portConstraint=eastwest;whiteSpace=wrap;html=1;rounded=1;labelBackgroundColor=none;fontColor=#143642;" parent="N519lql4RB3Tmnlweifi-180" vertex="1">
          <mxGeometry y="26" width="160" height="26" as="geometry" />
        </mxCell>
        <mxCell id="N519lql4RB3Tmnlweifi-182" value="" style="line;strokeWidth=1;fillColor=none;align=left;verticalAlign=middle;spacingTop=-1;spacingLeft=3;spacingRight=3;rotatable=0;labelPosition=right;points=[];portConstraint=eastwest;strokeColor=#0F8B8D;rounded=1;labelBackgroundColor=none;fontColor=#143642;" parent="N519lql4RB3Tmnlweifi-180" vertex="1">
          <mxGeometry y="52" width="160" height="8" as="geometry" />
        </mxCell>
        <mxCell id="N519lql4RB3Tmnlweifi-183" value="+ method(type): type" style="text;strokeColor=none;fillColor=none;align=left;verticalAlign=top;spacingLeft=4;spacingRight=4;overflow=hidden;rotatable=0;points=[[0,0.5],[1,0.5]];portConstraint=eastwest;whiteSpace=wrap;html=1;rounded=1;labelBackgroundColor=none;fontColor=#143642;" parent="N519lql4RB3Tmnlweifi-180" vertex="1">
          <mxGeometry y="60" width="160" height="26" as="geometry" />
        </mxCell>
        <mxCell id="zjAkS0u6og-Pdvrt3DcL-0" value="Timer" style="swimlane;fontStyle=1;align=center;verticalAlign=top;childLayout=stackLayout;horizontal=1;startSize=26;horizontalStack=0;resizeParent=1;resizeParentMax=0;resizeLast=0;collapsible=1;marginBottom=0;whiteSpace=wrap;html=1;rounded=1;labelBackgroundColor=none;fillColor=#FAE5C7;strokeColor=#0F8B8D;fontColor=#143642;" vertex="1" parent="WIyWlLk6GJQsqaUBKTNV-1">
          <mxGeometry x="858" y="1026" width="160" height="112" as="geometry" />
        </mxCell>
        <mxCell id="zjAkS0u6og-Pdvrt3DcL-10" value="- endTimer: number;" style="text;strokeColor=none;fillColor=none;align=left;verticalAlign=top;spacingLeft=4;spacingRight=4;overflow=hidden;rotatable=0;points=[[0,0.5],[1,0.5]];portConstraint=eastwest;whiteSpace=wrap;html=1;rounded=1;labelBackgroundColor=none;fontColor=#143642;" vertex="1" parent="zjAkS0u6og-Pdvrt3DcL-0">
          <mxGeometry y="26" width="160" height="26" as="geometry" />
        </mxCell>
        <mxCell id="zjAkS0u6og-Pdvrt3DcL-1" value="- initialTime: number" style="text;strokeColor=none;fillColor=none;align=left;verticalAlign=top;spacingLeft=4;spacingRight=4;overflow=hidden;rotatable=0;points=[[0,0.5],[1,0.5]];portConstraint=eastwest;whiteSpace=wrap;html=1;rounded=1;labelBackgroundColor=none;fontColor=#143642;" vertex="1" parent="zjAkS0u6og-Pdvrt3DcL-0">
          <mxGeometry y="52" width="160" height="26" as="geometry" />
        </mxCell>
        <mxCell id="zjAkS0u6og-Pdvrt3DcL-2" value="" style="line;strokeWidth=1;fillColor=none;align=left;verticalAlign=middle;spacingTop=-1;spacingLeft=3;spacingRight=3;rotatable=0;labelPosition=right;points=[];portConstraint=eastwest;strokeColor=#0F8B8D;rounded=1;labelBackgroundColor=none;fontColor=#143642;" vertex="1" parent="zjAkS0u6og-Pdvrt3DcL-0">
          <mxGeometry y="78" width="160" height="8" as="geometry" />
        </mxCell>
        <mxCell id="zjAkS0u6og-Pdvrt3DcL-18" value="+ calculateTime()" style="text;strokeColor=none;fillColor=none;align=left;verticalAlign=top;spacingLeft=4;spacingRight=4;overflow=hidden;rotatable=0;points=[[0,0.5],[1,0.5]];portConstraint=eastwest;whiteSpace=wrap;html=1;rounded=1;labelBackgroundColor=none;fontColor=#143642;" vertex="1" parent="zjAkS0u6og-Pdvrt3DcL-0">
          <mxGeometry y="86" width="160" height="26" as="geometry" />
        </mxCell>
        <mxCell id="zjAkS0u6og-Pdvrt3DcL-48" value="DataBase" style="swimlane;fontStyle=1;align=center;verticalAlign=top;childLayout=stackLayout;horizontal=1;startSize=26;horizontalStack=0;resizeParent=1;resizeParentMax=0;resizeLast=0;collapsible=1;marginBottom=0;whiteSpace=wrap;html=1;rounded=1;labelBackgroundColor=none;fillColor=#FAE5C7;strokeColor=#0F8B8D;fontColor=#143642;" vertex="1" parent="WIyWlLk6GJQsqaUBKTNV-1">
          <mxGeometry x="1064" y="-223" width="200" height="346" as="geometry" />
        </mxCell>
        <mxCell id="zjAkS0u6og-Pdvrt3DcL-111" value="- issues: Issue[]" style="text;strokeColor=none;fillColor=none;align=left;verticalAlign=top;spacingLeft=4;spacingRight=4;overflow=hidden;rotatable=0;points=[[0,0.5],[1,0.5]];portConstraint=eastwest;whiteSpace=wrap;html=1;rounded=1;labelBackgroundColor=none;fontColor=#143642;" vertex="1" parent="zjAkS0u6og-Pdvrt3DcL-48">
          <mxGeometry y="26" width="200" height="26" as="geometry" />
        </mxCell>
        <mxCell id="zjAkS0u6og-Pdvrt3DcL-345" value="- rents: Rent[]" style="text;strokeColor=none;fillColor=none;align=left;verticalAlign=top;spacingLeft=4;spacingRight=4;overflow=hidden;rotatable=0;points=[[0,0.5],[1,0.5]];portConstraint=eastwest;whiteSpace=wrap;html=1;rounded=1;labelBackgroundColor=none;fontColor=#143642;" vertex="1" parent="zjAkS0u6og-Pdvrt3DcL-48">
          <mxGeometry y="52" width="200" height="26" as="geometry" />
        </mxCell>
        <mxCell id="zjAkS0u6og-Pdvrt3DcL-378" value="- supplies: Supply[]" style="text;strokeColor=none;fillColor=none;align=left;verticalAlign=top;spacingLeft=4;spacingRight=4;overflow=hidden;rotatable=0;points=[[0,0.5],[1,0.5]];portConstraint=eastwest;whiteSpace=wrap;html=1;fontColor=#143642;" vertex="1" parent="zjAkS0u6og-Pdvrt3DcL-48">
          <mxGeometry y="78" width="200" height="26" as="geometry" />
        </mxCell>
        <mxCell id="zjAkS0u6og-Pdvrt3DcL-355" value="- tarifs: Tarif[]" style="text;strokeColor=none;fillColor=none;align=left;verticalAlign=top;spacingLeft=4;spacingRight=4;overflow=hidden;rotatable=0;points=[[0,0.5],[1,0.5]];portConstraint=eastwest;whiteSpace=wrap;html=1;rounded=1;labelBackgroundColor=none;fontColor=#143642;" vertex="1" parent="zjAkS0u6og-Pdvrt3DcL-48">
          <mxGeometry y="104" width="200" height="26" as="geometry" />
        </mxCell>
        <mxCell id="zjAkS0u6og-Pdvrt3DcL-50" value="" style="line;strokeWidth=1;fillColor=none;align=left;verticalAlign=middle;spacingTop=-1;spacingLeft=3;spacingRight=3;rotatable=0;labelPosition=right;points=[];portConstraint=eastwest;strokeColor=#0F8B8D;rounded=1;labelBackgroundColor=none;fontColor=#143642;" vertex="1" parent="zjAkS0u6og-Pdvrt3DcL-48">
          <mxGeometry y="130" width="200" height="8" as="geometry" />
        </mxCell>
        <mxCell id="zjAkS0u6og-Pdvrt3DcL-382" value="+ DataBase()" style="text;strokeColor=none;fillColor=none;align=left;verticalAlign=top;spacingLeft=4;spacingRight=4;overflow=hidden;rotatable=0;points=[[0,0.5],[1,0.5]];portConstraint=eastwest;whiteSpace=wrap;html=1;fontColor=#143642;" vertex="1" parent="zjAkS0u6og-Pdvrt3DcL-48">
          <mxGeometry y="138" width="200" height="26" as="geometry" />
        </mxCell>
        <mxCell id="zjAkS0u6og-Pdvrt3DcL-51" value="+ getCloseVehicle(position, vehicle)" style="text;strokeColor=none;fillColor=none;align=left;verticalAlign=top;spacingLeft=4;spacingRight=4;overflow=hidden;rotatable=0;points=[[0,0.5],[1,0.5]];portConstraint=eastwest;whiteSpace=wrap;html=1;rounded=1;labelBackgroundColor=none;fontColor=#143642;" vertex="1" parent="zjAkS0u6og-Pdvrt3DcL-48">
          <mxGeometry y="164" width="200" height="26" as="geometry" />
        </mxCell>
        <mxCell id="zjAkS0u6og-Pdvrt3DcL-112" value="+ addIssue(vehicle, message)" style="text;strokeColor=none;fillColor=none;align=left;verticalAlign=top;spacingLeft=4;spacingRight=4;overflow=hidden;rotatable=0;points=[[0,0.5],[1,0.5]];portConstraint=eastwest;whiteSpace=wrap;html=1;rounded=1;labelBackgroundColor=none;fontColor=#143642;" vertex="1" parent="zjAkS0u6og-Pdvrt3DcL-48">
          <mxGeometry y="190" width="200" height="26" as="geometry" />
        </mxCell>
        <mxCell id="zjAkS0u6og-Pdvrt3DcL-121" value="+ getIssues()" style="text;strokeColor=none;fillColor=none;align=left;verticalAlign=top;spacingLeft=4;spacingRight=4;overflow=hidden;rotatable=0;points=[[0,0.5],[1,0.5]];portConstraint=eastwest;whiteSpace=wrap;html=1;rounded=1;labelBackgroundColor=none;fontColor=#143642;" vertex="1" parent="zjAkS0u6og-Pdvrt3DcL-48">
          <mxGeometry y="216" width="200" height="26" as="geometry" />
        </mxCell>
        <mxCell id="zjAkS0u6og-Pdvrt3DcL-101" value="- setVehicle(vehicle)" style="text;strokeColor=none;fillColor=none;align=left;verticalAlign=top;spacingLeft=4;spacingRight=4;overflow=hidden;rotatable=0;points=[[0,0.5],[1,0.5]];portConstraint=eastwest;whiteSpace=wrap;html=1;rounded=1;labelBackgroundColor=none;fontColor=#143642;" vertex="1" parent="zjAkS0u6og-Pdvrt3DcL-48">
          <mxGeometry y="242" width="200" height="26" as="geometry" />
        </mxCell>
        <mxCell id="zjAkS0u6og-Pdvrt3DcL-379" value="- notifyUsage(Usage, Application)" style="text;strokeColor=none;fillColor=none;align=left;verticalAlign=top;spacingLeft=4;spacingRight=4;overflow=hidden;rotatable=0;points=[[0,0.5],[1,0.5]];portConstraint=eastwest;whiteSpace=wrap;html=1;fontColor=#143642;" vertex="1" parent="zjAkS0u6og-Pdvrt3DcL-48">
          <mxGeometry y="268" width="200" height="26" as="geometry" />
        </mxCell>
        <mxCell id="zjAkS0u6og-Pdvrt3DcL-381" value="- notifyIssue(Issue, Application)" style="text;strokeColor=none;fillColor=none;align=left;verticalAlign=top;spacingLeft=4;spacingRight=4;overflow=hidden;rotatable=0;points=[[0,0.5],[1,0.5]];portConstraint=eastwest;whiteSpace=wrap;html=1;fontColor=#143642;" vertex="1" parent="zjAkS0u6og-Pdvrt3DcL-48">
          <mxGeometry y="294" width="200" height="26" as="geometry" />
        </mxCell>
        <mxCell id="zjAkS0u6og-Pdvrt3DcL-380" value="- notifySupply(Supply, Application)" style="text;strokeColor=none;fillColor=none;align=left;verticalAlign=top;spacingLeft=4;spacingRight=4;overflow=hidden;rotatable=0;points=[[0,0.5],[1,0.5]];portConstraint=eastwest;whiteSpace=wrap;html=1;fontColor=#143642;" vertex="1" parent="zjAkS0u6og-Pdvrt3DcL-48">
          <mxGeometry y="320" width="200" height="26" as="geometry" />
        </mxCell>
        <mxCell id="zjAkS0u6og-Pdvrt3DcL-57" value="" style="endArrow=diamondThin;endFill=0;endSize=24;html=1;rounded=1;fontSize=12;curved=1;labelBackgroundColor=none;strokeColor=#A8201A;fontColor=default;" edge="1" parent="WIyWlLk6GJQsqaUBKTNV-1" source="zjAkS0u6og-Pdvrt3DcL-425" target="N519lql4RB3Tmnlweifi-180">
          <mxGeometry width="160" relative="1" as="geometry">
            <mxPoint x="1750" y="1306.0434782608695" as="sourcePoint" />
            <mxPoint x="1570" y="1420" as="targetPoint" />
          </mxGeometry>
        </mxCell>
        <mxCell id="zjAkS0u6og-Pdvrt3DcL-58" value="Big" style="swimlane;fontStyle=1;align=center;verticalAlign=top;childLayout=stackLayout;horizontal=1;startSize=26;horizontalStack=0;resizeParent=1;resizeParentMax=0;resizeLast=0;collapsible=1;marginBottom=0;whiteSpace=wrap;html=1;rounded=1;labelBackgroundColor=none;fillColor=#FAE5C7;strokeColor=#0F8B8D;fontColor=#143642;" vertex="1" parent="WIyWlLk6GJQsqaUBKTNV-1">
          <mxGeometry x="2000" y="1242" width="160" height="86" as="geometry" />
        </mxCell>
        <mxCell id="zjAkS0u6og-Pdvrt3DcL-59" value="+ field: type" style="text;strokeColor=none;fillColor=none;align=left;verticalAlign=top;spacingLeft=4;spacingRight=4;overflow=hidden;rotatable=0;points=[[0,0.5],[1,0.5]];portConstraint=eastwest;whiteSpace=wrap;html=1;rounded=1;labelBackgroundColor=none;fontColor=#143642;" vertex="1" parent="zjAkS0u6og-Pdvrt3DcL-58">
          <mxGeometry y="26" width="160" height="26" as="geometry" />
        </mxCell>
        <mxCell id="zjAkS0u6og-Pdvrt3DcL-60" value="" style="line;strokeWidth=1;fillColor=none;align=left;verticalAlign=middle;spacingTop=-1;spacingLeft=3;spacingRight=3;rotatable=0;labelPosition=right;points=[];portConstraint=eastwest;strokeColor=#0F8B8D;rounded=1;labelBackgroundColor=none;fontColor=#143642;" vertex="1" parent="zjAkS0u6og-Pdvrt3DcL-58">
          <mxGeometry y="52" width="160" height="8" as="geometry" />
        </mxCell>
        <mxCell id="zjAkS0u6og-Pdvrt3DcL-61" value="+ method(type): type" style="text;strokeColor=none;fillColor=none;align=left;verticalAlign=top;spacingLeft=4;spacingRight=4;overflow=hidden;rotatable=0;points=[[0,0.5],[1,0.5]];portConstraint=eastwest;whiteSpace=wrap;html=1;rounded=1;labelBackgroundColor=none;fontColor=#143642;" vertex="1" parent="zjAkS0u6og-Pdvrt3DcL-58">
          <mxGeometry y="60" width="160" height="26" as="geometry" />
        </mxCell>
        <mxCell id="zjAkS0u6og-Pdvrt3DcL-62" value="Small" style="swimlane;fontStyle=1;align=center;verticalAlign=top;childLayout=stackLayout;horizontal=1;startSize=26;horizontalStack=0;resizeParent=1;resizeParentMax=0;resizeLast=0;collapsible=1;marginBottom=0;whiteSpace=wrap;html=1;rounded=1;labelBackgroundColor=none;fillColor=#FAE5C7;strokeColor=#0F8B8D;fontColor=#143642;" vertex="1" parent="WIyWlLk6GJQsqaUBKTNV-1">
          <mxGeometry x="2000" y="1360" width="160" height="86" as="geometry" />
        </mxCell>
        <mxCell id="zjAkS0u6og-Pdvrt3DcL-63" value="+ field: type" style="text;strokeColor=none;fillColor=none;align=left;verticalAlign=top;spacingLeft=4;spacingRight=4;overflow=hidden;rotatable=0;points=[[0,0.5],[1,0.5]];portConstraint=eastwest;whiteSpace=wrap;html=1;rounded=1;labelBackgroundColor=none;fontColor=#143642;" vertex="1" parent="zjAkS0u6og-Pdvrt3DcL-62">
          <mxGeometry y="26" width="160" height="26" as="geometry" />
        </mxCell>
        <mxCell id="zjAkS0u6og-Pdvrt3DcL-64" value="" style="line;strokeWidth=1;fillColor=none;align=left;verticalAlign=middle;spacingTop=-1;spacingLeft=3;spacingRight=3;rotatable=0;labelPosition=right;points=[];portConstraint=eastwest;strokeColor=#0F8B8D;rounded=1;labelBackgroundColor=none;fontColor=#143642;" vertex="1" parent="zjAkS0u6og-Pdvrt3DcL-62">
          <mxGeometry y="52" width="160" height="8" as="geometry" />
        </mxCell>
        <mxCell id="zjAkS0u6og-Pdvrt3DcL-65" value="+ method(type): type" style="text;strokeColor=none;fillColor=none;align=left;verticalAlign=top;spacingLeft=4;spacingRight=4;overflow=hidden;rotatable=0;points=[[0,0.5],[1,0.5]];portConstraint=eastwest;whiteSpace=wrap;html=1;rounded=1;labelBackgroundColor=none;fontColor=#143642;" vertex="1" parent="zjAkS0u6og-Pdvrt3DcL-62">
          <mxGeometry y="60" width="160" height="26" as="geometry" />
        </mxCell>
        <mxCell id="zjAkS0u6og-Pdvrt3DcL-114" value="Issue" style="swimlane;fontStyle=1;align=center;verticalAlign=top;childLayout=stackLayout;horizontal=1;startSize=26;horizontalStack=0;resizeParent=1;resizeParentMax=0;resizeLast=0;collapsible=1;marginBottom=0;whiteSpace=wrap;html=1;rounded=1;labelBackgroundColor=none;fillColor=#FAE5C7;strokeColor=#0F8B8D;fontColor=#143642;" vertex="1" parent="WIyWlLk6GJQsqaUBKTNV-1">
          <mxGeometry x="836" y="-223" width="160" height="138" as="geometry" />
        </mxCell>
        <mxCell id="zjAkS0u6og-Pdvrt3DcL-119" value="- message: string" style="text;strokeColor=none;fillColor=none;align=left;verticalAlign=top;spacingLeft=4;spacingRight=4;overflow=hidden;rotatable=0;points=[[0,0.5],[1,0.5]];portConstraint=eastwest;whiteSpace=wrap;html=1;rounded=1;labelBackgroundColor=none;fontColor=#143642;" vertex="1" parent="zjAkS0u6og-Pdvrt3DcL-114">
          <mxGeometry y="26" width="160" height="26" as="geometry" />
        </mxCell>
        <mxCell id="zjAkS0u6og-Pdvrt3DcL-395" value="- issueType: IssueType" style="text;strokeColor=none;fillColor=none;align=left;verticalAlign=top;spacingLeft=4;spacingRight=4;overflow=hidden;rotatable=0;points=[[0,0.5],[1,0.5]];portConstraint=eastwest;whiteSpace=wrap;html=1;fontColor=#143642;" vertex="1" parent="zjAkS0u6og-Pdvrt3DcL-114">
          <mxGeometry y="52" width="160" height="26" as="geometry" />
        </mxCell>
        <mxCell id="zjAkS0u6og-Pdvrt3DcL-394" value="- coordinate: Coordinate" style="text;strokeColor=none;fillColor=none;align=left;verticalAlign=top;spacingLeft=4;spacingRight=4;overflow=hidden;rotatable=0;points=[[0,0.5],[1,0.5]];portConstraint=eastwest;whiteSpace=wrap;html=1;fontColor=#143642;" vertex="1" parent="zjAkS0u6og-Pdvrt3DcL-114">
          <mxGeometry y="78" width="160" height="26" as="geometry" />
        </mxCell>
        <mxCell id="zjAkS0u6og-Pdvrt3DcL-116" value="" style="line;strokeWidth=1;fillColor=none;align=left;verticalAlign=middle;spacingTop=-1;spacingLeft=3;spacingRight=3;rotatable=0;labelPosition=right;points=[];portConstraint=eastwest;strokeColor=#0F8B8D;rounded=1;labelBackgroundColor=none;fontColor=#143642;" vertex="1" parent="zjAkS0u6og-Pdvrt3DcL-114">
          <mxGeometry y="104" width="160" height="8" as="geometry" />
        </mxCell>
        <mxCell id="zjAkS0u6og-Pdvrt3DcL-117" value="+ Issue()" style="text;strokeColor=none;fillColor=none;align=left;verticalAlign=top;spacingLeft=4;spacingRight=4;overflow=hidden;rotatable=0;points=[[0,0.5],[1,0.5]];portConstraint=eastwest;whiteSpace=wrap;html=1;rounded=1;labelBackgroundColor=none;fontColor=#143642;" vertex="1" parent="zjAkS0u6og-Pdvrt3DcL-114">
          <mxGeometry y="112" width="160" height="26" as="geometry" />
        </mxCell>
        <mxCell id="zjAkS0u6og-Pdvrt3DcL-120" value="" style="endArrow=diamondThin;endFill=0;endSize=24;html=1;rounded=1;fontSize=12;curved=1;entryX=-0.001;entryY=0.948;entryDx=0;entryDy=0;entryPerimeter=0;labelBackgroundColor=none;strokeColor=#A8201A;fontColor=default;" edge="1" parent="WIyWlLk6GJQsqaUBKTNV-1" source="zjAkS0u6og-Pdvrt3DcL-114" target="zjAkS0u6og-Pdvrt3DcL-111">
          <mxGeometry width="160" relative="1" as="geometry">
            <mxPoint x="1147" y="11" as="sourcePoint" />
            <mxPoint x="1307" y="11" as="targetPoint" />
          </mxGeometry>
        </mxCell>
        <mxCell id="zjAkS0u6og-Pdvrt3DcL-152" value="&lt;i&gt;Person&lt;/i&gt;" style="swimlane;fontStyle=0;childLayout=stackLayout;horizontal=1;startSize=26;fillColor=none;horizontalStack=0;resizeParent=1;resizeParentMax=0;resizeLast=0;collapsible=1;marginBottom=0;whiteSpace=wrap;html=1;strokeColor=#0F8B8D;fontColor=#143642;rounded=1;" vertex="1" parent="WIyWlLk6GJQsqaUBKTNV-1">
          <mxGeometry x="1396" y="260" width="140" height="78" as="geometry" />
        </mxCell>
        <mxCell id="zjAkS0u6og-Pdvrt3DcL-153" value="- id: int" style="text;strokeColor=none;fillColor=none;align=left;verticalAlign=top;spacingLeft=4;spacingRight=4;overflow=hidden;rotatable=0;points=[[0,0.5],[1,0.5]];portConstraint=eastwest;whiteSpace=wrap;html=1;fontColor=#143642;" vertex="1" parent="zjAkS0u6og-Pdvrt3DcL-152">
          <mxGeometry y="26" width="140" height="26" as="geometry" />
        </mxCell>
        <mxCell id="zjAkS0u6og-Pdvrt3DcL-320" value="- name: string" style="text;strokeColor=none;fillColor=none;align=left;verticalAlign=top;spacingLeft=4;spacingRight=4;overflow=hidden;rotatable=0;points=[[0,0.5],[1,0.5]];portConstraint=eastwest;whiteSpace=wrap;html=1;fontColor=#143642;" vertex="1" parent="zjAkS0u6og-Pdvrt3DcL-152">
          <mxGeometry y="52" width="140" height="26" as="geometry" />
        </mxCell>
        <mxCell id="zjAkS0u6og-Pdvrt3DcL-159" value="" style="endArrow=block;endSize=16;endFill=0;html=1;rounded=0;strokeColor=#A8201A;fontSize=12;fontColor=#143642;curved=1;fillColor=#FAE5C7;exitX=0.5;exitY=0;exitDx=0;exitDy=0;" edge="1" parent="WIyWlLk6GJQsqaUBKTNV-1" source="N519lql4RB3Tmnlweifi-12" target="zjAkS0u6og-Pdvrt3DcL-152">
          <mxGeometry x="-0.0073" width="160" relative="1" as="geometry">
            <mxPoint x="1383" y="578" as="sourcePoint" />
            <mxPoint x="1543" y="578" as="targetPoint" />
            <Array as="points">
              <mxPoint x="1289" y="377" />
            </Array>
            <mxPoint as="offset" />
          </mxGeometry>
        </mxCell>
        <mxCell id="zjAkS0u6og-Pdvrt3DcL-160" value="" style="endArrow=block;endSize=16;endFill=0;html=1;rounded=0;strokeColor=#A8201A;fontSize=12;fontColor=#143642;curved=1;fillColor=#FAE5C7;exitX=0.5;exitY=0;exitDx=0;exitDy=0;entryX=1.025;entryY=0.392;entryDx=0;entryDy=0;entryPerimeter=0;" edge="1" parent="WIyWlLk6GJQsqaUBKTNV-1" source="N519lql4RB3Tmnlweifi-16" target="zjAkS0u6og-Pdvrt3DcL-152">
          <mxGeometry width="160" relative="1" as="geometry">
            <mxPoint x="1383" y="578" as="sourcePoint" />
            <mxPoint x="1543" y="578" as="targetPoint" />
            <Array as="points">
              <mxPoint x="1554" y="374" />
            </Array>
          </mxGeometry>
        </mxCell>
        <mxCell id="zjAkS0u6og-Pdvrt3DcL-161" value="" style="edgeLabel;html=1;align=center;verticalAlign=middle;resizable=0;points=[];fontSize=12;strokeColor=#0F8B8D;fontColor=#143642;fillColor=#FAE5C7;" vertex="1" connectable="0" parent="zjAkS0u6og-Pdvrt3DcL-160">
          <mxGeometry x="0.0091" y="-10" relative="1" as="geometry">
            <mxPoint as="offset" />
          </mxGeometry>
        </mxCell>
        <mxCell id="zjAkS0u6og-Pdvrt3DcL-174" value="&lt;i&gt;Vehicle&lt;/i&gt;" style="swimlane;fontStyle=0;childLayout=stackLayout;horizontal=1;startSize=26;fillColor=none;horizontalStack=0;resizeParent=1;resizeParentMax=0;resizeLast=0;collapsible=1;marginBottom=0;whiteSpace=wrap;html=1;strokeColor=#0F8B8D;fontColor=#143642;rounded=1;" vertex="1" parent="WIyWlLk6GJQsqaUBKTNV-1">
          <mxGeometry x="999" y="1280" width="151" height="346" as="geometry" />
        </mxCell>
        <mxCell id="N519lql4RB3Tmnlweifi-112" value="- location: Coordinate" style="text;strokeColor=none;fillColor=none;align=left;verticalAlign=top;spacingLeft=4;spacingRight=4;overflow=hidden;rotatable=0;points=[[0,0.5],[1,0.5]];portConstraint=eastwest;whiteSpace=wrap;html=1;rounded=1;labelBackgroundColor=none;fontColor=#143642;" parent="zjAkS0u6og-Pdvrt3DcL-174" vertex="1">
          <mxGeometry y="26" width="151" height="26" as="geometry" />
        </mxCell>
        <mxCell id="N519lql4RB3Tmnlweifi-163" value="- availability: boolean" style="text;strokeColor=none;fillColor=none;align=left;verticalAlign=top;spacingLeft=4;spacingRight=4;overflow=hidden;rotatable=0;points=[[0,0.5],[1,0.5]];portConstraint=eastwest;whiteSpace=wrap;html=1;rounded=1;labelBackgroundColor=none;fontColor=#143642;" parent="zjAkS0u6og-Pdvrt3DcL-174" vertex="1">
          <mxGeometry y="52" width="151" height="26" as="geometry" />
        </mxCell>
        <mxCell id="N519lql4RB3Tmnlweifi-164" value="- battery: Battery" style="text;strokeColor=none;fillColor=none;align=left;verticalAlign=top;spacingLeft=4;spacingRight=4;overflow=hidden;rotatable=0;points=[[0,0.5],[1,0.5]];portConstraint=eastwest;whiteSpace=wrap;html=1;rounded=1;labelBackgroundColor=none;fontColor=#143642;" parent="zjAkS0u6og-Pdvrt3DcL-174" vertex="1">
          <mxGeometry y="78" width="151" height="26" as="geometry" />
        </mxCell>
        <mxCell id="zjAkS0u6og-Pdvrt3DcL-87" value="- base: Base" style="text;strokeColor=none;fillColor=none;align=left;verticalAlign=top;spacingLeft=4;spacingRight=4;overflow=hidden;rotatable=0;points=[[0,0.5],[1,0.5]];portConstraint=eastwest;whiteSpace=wrap;html=1;rounded=1;labelBackgroundColor=none;fontColor=#143642;" vertex="1" parent="zjAkS0u6og-Pdvrt3DcL-174">
          <mxGeometry y="104" width="151" height="26" as="geometry" />
        </mxCell>
        <mxCell id="zjAkS0u6og-Pdvrt3DcL-23" value="- batteryPerMin: number" style="text;strokeColor=none;fillColor=none;align=left;verticalAlign=top;spacingLeft=4;spacingRight=4;overflow=hidden;rotatable=0;points=[[0,0.5],[1,0.5]];portConstraint=eastwest;whiteSpace=wrap;html=1;rounded=1;labelBackgroundColor=none;fontColor=#143642;" vertex="1" parent="zjAkS0u6og-Pdvrt3DcL-174">
          <mxGeometry y="130" width="151" height="26" as="geometry" />
        </mxCell>
        <mxCell id="zjAkS0u6og-Pdvrt3DcL-20" value="- timer: Timer" style="text;strokeColor=none;fillColor=none;align=left;verticalAlign=top;spacingLeft=4;spacingRight=4;overflow=hidden;rotatable=0;points=[[0,0.5],[1,0.5]];portConstraint=eastwest;whiteSpace=wrap;html=1;rounded=1;labelBackgroundColor=none;fontColor=#143642;" vertex="1" parent="zjAkS0u6og-Pdvrt3DcL-174">
          <mxGeometry y="156" width="151" height="26" as="geometry" />
        </mxCell>
        <mxCell id="N519lql4RB3Tmnlweifi-113" value="" style="line;strokeWidth=1;fillColor=none;align=left;verticalAlign=middle;spacingTop=-1;spacingLeft=3;spacingRight=3;rotatable=0;labelPosition=right;points=[];portConstraint=eastwest;strokeColor=#0F8B8D;rounded=1;labelBackgroundColor=none;fontColor=#143642;" parent="zjAkS0u6og-Pdvrt3DcL-174" vertex="1">
          <mxGeometry y="182" width="151" height="8" as="geometry" />
        </mxCell>
        <mxCell id="N519lql4RB3Tmnlweifi-165" value="+ checkBattery()" style="text;strokeColor=none;fillColor=none;align=left;verticalAlign=top;spacingLeft=4;spacingRight=4;overflow=hidden;rotatable=0;points=[[0,0.5],[1,0.5]];portConstraint=eastwest;whiteSpace=wrap;html=1;rounded=1;labelBackgroundColor=none;fontColor=#143642;" parent="zjAkS0u6og-Pdvrt3DcL-174" vertex="1">
          <mxGeometry y="190" width="151" height="26" as="geometry" />
        </mxCell>
        <mxCell id="zjAkS0u6og-Pdvrt3DcL-8" value="- lock()" style="text;strokeColor=none;fillColor=none;align=left;verticalAlign=top;spacingLeft=4;spacingRight=4;overflow=hidden;rotatable=0;points=[[0,0.5],[1,0.5]];portConstraint=eastwest;whiteSpace=wrap;html=1;rounded=1;labelBackgroundColor=none;fontColor=#143642;" vertex="1" parent="zjAkS0u6og-Pdvrt3DcL-174">
          <mxGeometry y="216" width="151" height="26" as="geometry" />
        </mxCell>
        <mxCell id="zjAkS0u6og-Pdvrt3DcL-7" value="- unlock()" style="text;strokeColor=none;fillColor=none;align=left;verticalAlign=top;spacingLeft=4;spacingRight=4;overflow=hidden;rotatable=0;points=[[0,0.5],[1,0.5]];portConstraint=eastwest;whiteSpace=wrap;html=1;rounded=1;labelBackgroundColor=none;fontColor=#143642;" vertex="1" parent="zjAkS0u6og-Pdvrt3DcL-174">
          <mxGeometry y="242" width="151" height="26" as="geometry" />
        </mxCell>
        <mxCell id="N519lql4RB3Tmnlweifi-114" value="- setAvailability()" style="text;strokeColor=none;fillColor=none;align=left;verticalAlign=top;spacingLeft=4;spacingRight=4;overflow=hidden;rotatable=0;points=[[0,0.5],[1,0.5]];portConstraint=eastwest;whiteSpace=wrap;html=1;rounded=1;labelBackgroundColor=none;fontColor=#143642;" parent="zjAkS0u6og-Pdvrt3DcL-174" vertex="1">
          <mxGeometry y="268" width="151" height="26" as="geometry" />
        </mxCell>
        <mxCell id="zjAkS0u6og-Pdvrt3DcL-9" value="+ startRent(time, battery)" style="text;strokeColor=none;fillColor=none;align=left;verticalAlign=top;spacingLeft=4;spacingRight=4;overflow=hidden;rotatable=0;points=[[0,0.5],[1,0.5]];portConstraint=eastwest;whiteSpace=wrap;html=1;rounded=1;labelBackgroundColor=none;fontColor=#143642;" vertex="1" parent="zjAkS0u6og-Pdvrt3DcL-174">
          <mxGeometry y="294" width="151" height="26" as="geometry" />
        </mxCell>
        <mxCell id="zjAkS0u6og-Pdvrt3DcL-22" value="+ stopRent(time, battery)" style="text;strokeColor=none;fillColor=none;align=left;verticalAlign=top;spacingLeft=4;spacingRight=4;overflow=hidden;rotatable=0;points=[[0,0.5],[1,0.5]];portConstraint=eastwest;whiteSpace=wrap;html=1;rounded=1;labelBackgroundColor=none;fontColor=#143642;" vertex="1" parent="zjAkS0u6og-Pdvrt3DcL-174">
          <mxGeometry y="320" width="151" height="26" as="geometry" />
        </mxCell>
        <mxCell id="zjAkS0u6og-Pdvrt3DcL-178" value="Application" style="swimlane;fontStyle=1;align=center;verticalAlign=top;childLayout=stackLayout;horizontal=1;startSize=26;horizontalStack=0;resizeParent=1;resizeParentMax=0;resizeLast=0;collapsible=1;marginBottom=0;whiteSpace=wrap;html=1;strokeColor=#0F8B8D;fontColor=#143642;fillColor=#FAE5C7;rounded=1;" vertex="1" parent="WIyWlLk6GJQsqaUBKTNV-1">
          <mxGeometry x="1314" y="-223" width="171" height="294" as="geometry" />
        </mxCell>
        <mxCell id="zjAkS0u6og-Pdvrt3DcL-384" value="- &lt;b&gt;static&lt;/b&gt;&amp;nbsp;instance: Application" style="text;strokeColor=none;fillColor=none;align=left;verticalAlign=top;spacingLeft=4;spacingRight=4;overflow=hidden;rotatable=0;points=[[0,0.5],[1,0.5]];portConstraint=eastwest;whiteSpace=wrap;html=1;fontColor=#143642;" vertex="1" parent="zjAkS0u6og-Pdvrt3DcL-178">
          <mxGeometry y="26" width="171" height="26" as="geometry" />
        </mxCell>
        <mxCell id="zjAkS0u6og-Pdvrt3DcL-179" value="- users: User[]" style="text;strokeColor=none;fillColor=none;align=left;verticalAlign=top;spacingLeft=4;spacingRight=4;overflow=hidden;rotatable=0;points=[[0,0.5],[1,0.5]];portConstraint=eastwest;whiteSpace=wrap;html=1;fontColor=#143642;" vertex="1" parent="zjAkS0u6og-Pdvrt3DcL-178">
          <mxGeometry y="52" width="171" height="26" as="geometry" />
        </mxCell>
        <mxCell id="zjAkS0u6og-Pdvrt3DcL-182" value="- dataBase: DataBase&amp;nbsp;" style="text;strokeColor=none;fillColor=none;align=left;verticalAlign=top;spacingLeft=4;spacingRight=4;overflow=hidden;rotatable=0;points=[[0,0.5],[1,0.5]];portConstraint=eastwest;whiteSpace=wrap;html=1;fontColor=#143642;" vertex="1" parent="zjAkS0u6og-Pdvrt3DcL-178">
          <mxGeometry y="78" width="171" height="26" as="geometry" />
        </mxCell>
        <mxCell id="zjAkS0u6og-Pdvrt3DcL-183" value="- employees: Employee[]" style="text;strokeColor=none;fillColor=none;align=left;verticalAlign=top;spacingLeft=4;spacingRight=4;overflow=hidden;rotatable=0;points=[[0,0.5],[1,0.5]];portConstraint=eastwest;whiteSpace=wrap;html=1;fontColor=#143642;" vertex="1" parent="zjAkS0u6og-Pdvrt3DcL-178">
          <mxGeometry y="104" width="171" height="26" as="geometry" />
        </mxCell>
        <mxCell id="zjAkS0u6og-Pdvrt3DcL-184" value="- admin: Admin" style="text;strokeColor=none;fillColor=none;align=left;verticalAlign=top;spacingLeft=4;spacingRight=4;overflow=hidden;rotatable=0;points=[[0,0.5],[1,0.5]];portConstraint=eastwest;whiteSpace=wrap;html=1;fontColor=#143642;" vertex="1" parent="zjAkS0u6og-Pdvrt3DcL-178">
          <mxGeometry y="130" width="171" height="26" as="geometry" />
        </mxCell>
        <mxCell id="zjAkS0u6og-Pdvrt3DcL-185" value="- map: Map" style="text;strokeColor=none;fillColor=none;align=left;verticalAlign=top;spacingLeft=4;spacingRight=4;overflow=hidden;rotatable=0;points=[[0,0.5],[1,0.5]];portConstraint=eastwest;whiteSpace=wrap;html=1;fontColor=#143642;" vertex="1" parent="zjAkS0u6og-Pdvrt3DcL-178">
          <mxGeometry y="156" width="171" height="26" as="geometry" />
        </mxCell>
        <mxCell id="zjAkS0u6og-Pdvrt3DcL-186" value="- bases: Base[]" style="text;strokeColor=none;fillColor=none;align=left;verticalAlign=top;spacingLeft=4;spacingRight=4;overflow=hidden;rotatable=0;points=[[0,0.5],[1,0.5]];portConstraint=eastwest;whiteSpace=wrap;html=1;fontColor=#143642;" vertex="1" parent="zjAkS0u6og-Pdvrt3DcL-178">
          <mxGeometry y="182" width="171" height="26" as="geometry" />
        </mxCell>
        <mxCell id="zjAkS0u6og-Pdvrt3DcL-188" value="- vehicles: Vehicles[]" style="text;strokeColor=none;fillColor=none;align=left;verticalAlign=top;spacingLeft=4;spacingRight=4;overflow=hidden;rotatable=0;points=[[0,0.5],[1,0.5]];portConstraint=eastwest;whiteSpace=wrap;html=1;fontColor=#143642;" vertex="1" parent="zjAkS0u6og-Pdvrt3DcL-178">
          <mxGeometry y="208" width="171" height="26" as="geometry" />
        </mxCell>
        <mxCell id="zjAkS0u6og-Pdvrt3DcL-298" value="" style="line;strokeWidth=1;fillColor=none;align=left;verticalAlign=middle;spacingTop=-1;spacingLeft=3;spacingRight=3;rotatable=0;labelPosition=right;points=[];portConstraint=eastwest;strokeColor=inherit;fontColor=#143642;" vertex="1" parent="zjAkS0u6og-Pdvrt3DcL-178">
          <mxGeometry y="234" width="171" height="8" as="geometry" />
        </mxCell>
        <mxCell id="zjAkS0u6og-Pdvrt3DcL-386" value="+ getInstance()" style="text;strokeColor=none;fillColor=none;align=left;verticalAlign=top;spacingLeft=4;spacingRight=4;overflow=hidden;rotatable=0;points=[[0,0.5],[1,0.5]];portConstraint=eastwest;whiteSpace=wrap;html=1;fontColor=#143642;" vertex="1" parent="zjAkS0u6og-Pdvrt3DcL-178">
          <mxGeometry y="242" width="171" height="26" as="geometry" />
        </mxCell>
        <mxCell id="zjAkS0u6og-Pdvrt3DcL-299" value="- Application()" style="text;strokeColor=none;fillColor=none;align=left;verticalAlign=top;spacingLeft=4;spacingRight=4;overflow=hidden;rotatable=0;points=[[0,0.5],[1,0.5]];portConstraint=eastwest;whiteSpace=wrap;html=1;fontColor=#143642;" vertex="1" parent="zjAkS0u6og-Pdvrt3DcL-178">
          <mxGeometry y="268" width="171" height="26" as="geometry" />
        </mxCell>
        <mxCell id="zjAkS0u6og-Pdvrt3DcL-233" value="Admin" style="swimlane;fontStyle=1;align=center;verticalAlign=top;childLayout=stackLayout;horizontal=1;startSize=26;horizontalStack=0;resizeParent=1;resizeParentMax=0;resizeLast=0;collapsible=1;marginBottom=0;whiteSpace=wrap;html=1;strokeColor=#0F8B8D;fontColor=#143642;fillColor=#FAE5C7;rounded=1;" vertex="1" parent="WIyWlLk6GJQsqaUBKTNV-1">
          <mxGeometry x="1754" y="600" width="228" height="658" as="geometry" />
        </mxCell>
        <mxCell id="zjAkS0u6og-Pdvrt3DcL-234" value="+ field: type" style="text;strokeColor=none;fillColor=none;align=left;verticalAlign=top;spacingLeft=4;spacingRight=4;overflow=hidden;rotatable=0;points=[[0,0.5],[1,0.5]];portConstraint=eastwest;whiteSpace=wrap;html=1;fontColor=#143642;" vertex="1" parent="zjAkS0u6og-Pdvrt3DcL-233">
          <mxGeometry y="26" width="228" height="26" as="geometry" />
        </mxCell>
        <mxCell id="zjAkS0u6og-Pdvrt3DcL-235" value="" style="line;strokeWidth=1;fillColor=none;align=left;verticalAlign=middle;spacingTop=-1;spacingLeft=3;spacingRight=3;rotatable=0;labelPosition=right;points=[];portConstraint=eastwest;strokeColor=inherit;fontColor=#143642;" vertex="1" parent="zjAkS0u6og-Pdvrt3DcL-233">
          <mxGeometry y="52" width="228" height="8" as="geometry" />
        </mxCell>
        <mxCell id="zjAkS0u6og-Pdvrt3DcL-276" value="+ Admin(RoleType)" style="text;strokeColor=none;fillColor=none;align=left;verticalAlign=top;spacingLeft=4;spacingRight=4;overflow=hidden;rotatable=0;points=[[0,0.5],[1,0.5]];portConstraint=eastwest;whiteSpace=wrap;html=1;fontColor=#143642;" vertex="1" parent="zjAkS0u6og-Pdvrt3DcL-233">
          <mxGeometry y="60" width="228" height="26" as="geometry" />
        </mxCell>
        <mxCell id="zjAkS0u6og-Pdvrt3DcL-275" value="+ createUser(User)" style="text;strokeColor=none;fillColor=none;align=left;verticalAlign=top;spacingLeft=4;spacingRight=4;overflow=hidden;rotatable=0;points=[[0,0.5],[1,0.5]];portConstraint=eastwest;whiteSpace=wrap;html=1;fontColor=#143642;" vertex="1" parent="zjAkS0u6og-Pdvrt3DcL-233">
          <mxGeometry y="86" width="228" height="26" as="geometry" />
        </mxCell>
        <mxCell id="zjAkS0u6og-Pdvrt3DcL-274" value="+ createEmployee(RoleType)" style="text;strokeColor=none;fillColor=none;align=left;verticalAlign=top;spacingLeft=4;spacingRight=4;overflow=hidden;rotatable=0;points=[[0,0.5],[1,0.5]];portConstraint=eastwest;whiteSpace=wrap;html=1;fontColor=#143642;" vertex="1" parent="zjAkS0u6og-Pdvrt3DcL-233">
          <mxGeometry y="112" width="228" height="26" as="geometry" />
        </mxCell>
        <mxCell id="zjAkS0u6og-Pdvrt3DcL-273" value="+ createTarif(Tarif)" style="text;strokeColor=none;fillColor=none;align=left;verticalAlign=top;spacingLeft=4;spacingRight=4;overflow=hidden;rotatable=0;points=[[0,0.5],[1,0.5]];portConstraint=eastwest;whiteSpace=wrap;html=1;fontColor=#143642;" vertex="1" parent="zjAkS0u6og-Pdvrt3DcL-233">
          <mxGeometry y="138" width="228" height="26" as="geometry" />
        </mxCell>
        <mxCell id="zjAkS0u6og-Pdvrt3DcL-356" value="+ createVehicle(Vehicle)" style="text;strokeColor=none;fillColor=none;align=left;verticalAlign=top;spacingLeft=4;spacingRight=4;overflow=hidden;rotatable=0;points=[[0,0.5],[1,0.5]];portConstraint=eastwest;whiteSpace=wrap;html=1;fontColor=#143642;" vertex="1" parent="zjAkS0u6og-Pdvrt3DcL-233">
          <mxGeometry y="164" width="228" height="26" as="geometry" />
        </mxCell>
        <mxCell id="zjAkS0u6og-Pdvrt3DcL-272" value="+ upgradeUser(User, DataBase)" style="text;strokeColor=none;fillColor=none;align=left;verticalAlign=top;spacingLeft=4;spacingRight=4;overflow=hidden;rotatable=0;points=[[0,0.5],[1,0.5]];portConstraint=eastwest;whiteSpace=wrap;html=1;fontColor=#143642;" vertex="1" parent="zjAkS0u6og-Pdvrt3DcL-233">
          <mxGeometry y="190" width="228" height="26" as="geometry" />
        </mxCell>
        <mxCell id="zjAkS0u6og-Pdvrt3DcL-271" value="+ deleteUser(user)" style="text;strokeColor=none;fillColor=none;align=left;verticalAlign=top;spacingLeft=4;spacingRight=4;overflow=hidden;rotatable=0;points=[[0,0.5],[1,0.5]];portConstraint=eastwest;whiteSpace=wrap;html=1;fontColor=#143642;" vertex="1" parent="zjAkS0u6og-Pdvrt3DcL-233">
          <mxGeometry y="216" width="228" height="26" as="geometry" />
        </mxCell>
        <mxCell id="zjAkS0u6og-Pdvrt3DcL-270" value="+ deleteEmployee(employee)" style="text;strokeColor=none;fillColor=none;align=left;verticalAlign=top;spacingLeft=4;spacingRight=4;overflow=hidden;rotatable=0;points=[[0,0.5],[1,0.5]];portConstraint=eastwest;whiteSpace=wrap;html=1;fontColor=#143642;" vertex="1" parent="zjAkS0u6og-Pdvrt3DcL-233">
          <mxGeometry y="242" width="228" height="26" as="geometry" />
        </mxCell>
        <mxCell id="zjAkS0u6og-Pdvrt3DcL-357" value="+ deleteVehicle(Vehicle)" style="text;strokeColor=none;fillColor=none;align=left;verticalAlign=top;spacingLeft=4;spacingRight=4;overflow=hidden;rotatable=0;points=[[0,0.5],[1,0.5]];portConstraint=eastwest;whiteSpace=wrap;html=1;fontColor=#143642;" vertex="1" parent="zjAkS0u6og-Pdvrt3DcL-233">
          <mxGeometry y="268" width="228" height="26" as="geometry" />
        </mxCell>
        <mxCell id="zjAkS0u6og-Pdvrt3DcL-269" value="+ checkBattery(vehicle)" style="text;strokeColor=none;fillColor=none;align=left;verticalAlign=top;spacingLeft=4;spacingRight=4;overflow=hidden;rotatable=0;points=[[0,0.5],[1,0.5]];portConstraint=eastwest;whiteSpace=wrap;html=1;fontColor=#143642;" vertex="1" parent="zjAkS0u6og-Pdvrt3DcL-233">
          <mxGeometry y="294" width="228" height="26" as="geometry" />
        </mxCell>
        <mxCell id="zjAkS0u6og-Pdvrt3DcL-329" value="+ checkIssue(vehicle)" style="text;strokeColor=none;fillColor=none;align=left;verticalAlign=top;spacingLeft=4;spacingRight=4;overflow=hidden;rotatable=0;points=[[0,0.5],[1,0.5]];portConstraint=eastwest;whiteSpace=wrap;html=1;fontColor=#143642;" vertex="1" parent="zjAkS0u6og-Pdvrt3DcL-233">
          <mxGeometry y="320" width="228" height="26" as="geometry" />
        </mxCell>
        <mxCell id="zjAkS0u6og-Pdvrt3DcL-268" value="+ checkState(base)" style="text;strokeColor=none;fillColor=none;align=left;verticalAlign=top;spacingLeft=4;spacingRight=4;overflow=hidden;rotatable=0;points=[[0,0.5],[1,0.5]];portConstraint=eastwest;whiteSpace=wrap;html=1;fontColor=#143642;" vertex="1" parent="zjAkS0u6og-Pdvrt3DcL-233">
          <mxGeometry y="346" width="228" height="26" as="geometry" />
        </mxCell>
        <mxCell id="zjAkS0u6og-Pdvrt3DcL-267" value="+ sendToPick(vehicle)" style="text;strokeColor=none;fillColor=none;align=left;verticalAlign=top;spacingLeft=4;spacingRight=4;overflow=hidden;rotatable=0;points=[[0,0.5],[1,0.5]];portConstraint=eastwest;whiteSpace=wrap;html=1;fontColor=#143642;" vertex="1" parent="zjAkS0u6og-Pdvrt3DcL-233">
          <mxGeometry y="372" width="228" height="26" as="geometry" />
        </mxCell>
        <mxCell id="zjAkS0u6og-Pdvrt3DcL-236" value="+ sendToRepair(vehicle)" style="text;strokeColor=none;fillColor=none;align=left;verticalAlign=top;spacingLeft=4;spacingRight=4;overflow=hidden;rotatable=0;points=[[0,0.5],[1,0.5]];portConstraint=eastwest;whiteSpace=wrap;html=1;fontColor=#143642;" vertex="1" parent="zjAkS0u6og-Pdvrt3DcL-233">
          <mxGeometry y="398" width="228" height="26" as="geometry" />
        </mxCell>
        <mxCell id="zjAkS0u6og-Pdvrt3DcL-330" value="+ sendToRepair(base)" style="text;strokeColor=none;fillColor=none;align=left;verticalAlign=top;spacingLeft=4;spacingRight=4;overflow=hidden;rotatable=0;points=[[0,0.5],[1,0.5]];portConstraint=eastwest;whiteSpace=wrap;html=1;fontColor=#143642;" vertex="1" parent="zjAkS0u6og-Pdvrt3DcL-233">
          <mxGeometry y="424" width="228" height="26" as="geometry" />
        </mxCell>
        <mxCell id="zjAkS0u6og-Pdvrt3DcL-328" value="+ editEmployee(employee)" style="text;strokeColor=none;fillColor=none;align=left;verticalAlign=top;spacingLeft=4;spacingRight=4;overflow=hidden;rotatable=0;points=[[0,0.5],[1,0.5]];portConstraint=eastwest;whiteSpace=wrap;html=1;fontColor=#143642;" vertex="1" parent="zjAkS0u6og-Pdvrt3DcL-233">
          <mxGeometry y="450" width="228" height="26" as="geometry" />
        </mxCell>
        <mxCell id="zjAkS0u6og-Pdvrt3DcL-350" value="+ checkUsage(User)" style="text;strokeColor=none;fillColor=none;align=left;verticalAlign=top;spacingLeft=4;spacingRight=4;overflow=hidden;rotatable=0;points=[[0,0.5],[1,0.5]];portConstraint=eastwest;whiteSpace=wrap;html=1;fontColor=#143642;" vertex="1" parent="zjAkS0u6og-Pdvrt3DcL-233">
          <mxGeometry y="476" width="228" height="26" as="geometry" />
        </mxCell>
        <mxCell id="zjAkS0u6og-Pdvrt3DcL-352" value="+ checkUsage(Date, Date)" style="text;strokeColor=none;fillColor=none;align=left;verticalAlign=top;spacingLeft=4;spacingRight=4;overflow=hidden;rotatable=0;points=[[0,0.5],[1,0.5]];portConstraint=eastwest;whiteSpace=wrap;html=1;fontColor=#143642;" vertex="1" parent="zjAkS0u6og-Pdvrt3DcL-233">
          <mxGeometry y="502" width="228" height="26" as="geometry" />
        </mxCell>
        <mxCell id="zjAkS0u6og-Pdvrt3DcL-351" value="+ checkData(Person)" style="text;strokeColor=none;fillColor=none;align=left;verticalAlign=top;spacingLeft=4;spacingRight=4;overflow=hidden;rotatable=0;points=[[0,0.5],[1,0.5]];portConstraint=eastwest;whiteSpace=wrap;html=1;fontColor=#143642;" vertex="1" parent="zjAkS0u6og-Pdvrt3DcL-233">
          <mxGeometry y="528" width="228" height="26" as="geometry" />
        </mxCell>
        <mxCell id="zjAkS0u6og-Pdvrt3DcL-286" value="- assignMecanic(vehicle)" style="text;strokeColor=none;fillColor=none;align=left;verticalAlign=top;spacingLeft=4;spacingRight=4;overflow=hidden;rotatable=0;points=[[0,0.5],[1,0.5]];portConstraint=eastwest;whiteSpace=wrap;html=1;fontColor=#143642;" vertex="1" parent="zjAkS0u6og-Pdvrt3DcL-233">
          <mxGeometry y="554" width="228" height="26" as="geometry" />
        </mxCell>
        <mxCell id="zjAkS0u6og-Pdvrt3DcL-331" value="- assignMecanic(base)" style="text;strokeColor=none;fillColor=none;align=left;verticalAlign=top;spacingLeft=4;spacingRight=4;overflow=hidden;rotatable=0;points=[[0,0.5],[1,0.5]];portConstraint=eastwest;whiteSpace=wrap;html=1;fontColor=#143642;" vertex="1" parent="zjAkS0u6og-Pdvrt3DcL-233">
          <mxGeometry y="580" width="228" height="26" as="geometry" />
        </mxCell>
        <mxCell id="zjAkS0u6og-Pdvrt3DcL-287" value="- assignMantainer(vehicle)" style="text;strokeColor=none;fillColor=none;align=left;verticalAlign=top;spacingLeft=4;spacingRight=4;overflow=hidden;rotatable=0;points=[[0,0.5],[1,0.5]];portConstraint=eastwest;whiteSpace=wrap;html=1;fontColor=#143642;" vertex="1" parent="zjAkS0u6og-Pdvrt3DcL-233">
          <mxGeometry y="606" width="228" height="26" as="geometry" />
        </mxCell>
        <mxCell id="zjAkS0u6og-Pdvrt3DcL-383" value="- willUpgrade(User, DataBase): boolean" style="text;strokeColor=none;fillColor=none;align=left;verticalAlign=top;spacingLeft=4;spacingRight=4;overflow=hidden;rotatable=0;points=[[0,0.5],[1,0.5]];portConstraint=eastwest;whiteSpace=wrap;html=1;fontColor=#143642;" vertex="1" parent="zjAkS0u6og-Pdvrt3DcL-233">
          <mxGeometry y="632" width="228" height="26" as="geometry" />
        </mxCell>
        <mxCell id="zjAkS0u6og-Pdvrt3DcL-237" value="Mantainer" style="swimlane;fontStyle=1;align=center;verticalAlign=top;childLayout=stackLayout;horizontal=1;startSize=26;horizontalStack=0;resizeParent=1;resizeParentMax=0;resizeLast=0;collapsible=1;marginBottom=0;whiteSpace=wrap;html=1;strokeColor=#0F8B8D;fontColor=#143642;fillColor=#FAE5C7;rounded=1;" vertex="1" parent="WIyWlLk6GJQsqaUBKTNV-1">
          <mxGeometry x="2164" y="598" width="160" height="138" as="geometry" />
        </mxCell>
        <mxCell id="zjAkS0u6og-Pdvrt3DcL-238" value="+ field: type" style="text;strokeColor=none;fillColor=none;align=left;verticalAlign=top;spacingLeft=4;spacingRight=4;overflow=hidden;rotatable=0;points=[[0,0.5],[1,0.5]];portConstraint=eastwest;whiteSpace=wrap;html=1;fontColor=#143642;" vertex="1" parent="zjAkS0u6og-Pdvrt3DcL-237">
          <mxGeometry y="26" width="160" height="26" as="geometry" />
        </mxCell>
        <mxCell id="zjAkS0u6og-Pdvrt3DcL-239" value="" style="line;strokeWidth=1;fillColor=none;align=left;verticalAlign=middle;spacingTop=-1;spacingLeft=3;spacingRight=3;rotatable=0;labelPosition=right;points=[];portConstraint=eastwest;strokeColor=inherit;fontColor=#143642;" vertex="1" parent="zjAkS0u6og-Pdvrt3DcL-237">
          <mxGeometry y="52" width="160" height="8" as="geometry" />
        </mxCell>
        <mxCell id="zjAkS0u6og-Pdvrt3DcL-240" value="+ Mantainer(RoleType)" style="text;strokeColor=none;fillColor=none;align=left;verticalAlign=top;spacingLeft=4;spacingRight=4;overflow=hidden;rotatable=0;points=[[0,0.5],[1,0.5]];portConstraint=eastwest;whiteSpace=wrap;html=1;fontColor=#143642;" vertex="1" parent="zjAkS0u6og-Pdvrt3DcL-237">
          <mxGeometry y="60" width="160" height="26" as="geometry" />
        </mxCell>
        <mxCell id="zjAkS0u6og-Pdvrt3DcL-295" value="+ pick(vehicle)" style="text;strokeColor=none;fillColor=none;align=left;verticalAlign=top;spacingLeft=4;spacingRight=4;overflow=hidden;rotatable=0;points=[[0,0.5],[1,0.5]];portConstraint=eastwest;whiteSpace=wrap;html=1;fontColor=#143642;" vertex="1" parent="zjAkS0u6og-Pdvrt3DcL-237">
          <mxGeometry y="86" width="160" height="26" as="geometry" />
        </mxCell>
        <mxCell id="zjAkS0u6og-Pdvrt3DcL-297" value="+ charge(vehicle)" style="text;strokeColor=none;fillColor=none;align=left;verticalAlign=top;spacingLeft=4;spacingRight=4;overflow=hidden;rotatable=0;points=[[0,0.5],[1,0.5]];portConstraint=eastwest;whiteSpace=wrap;html=1;fontColor=#143642;" vertex="1" parent="zjAkS0u6og-Pdvrt3DcL-237">
          <mxGeometry y="112" width="160" height="26" as="geometry" />
        </mxCell>
        <mxCell id="zjAkS0u6og-Pdvrt3DcL-241" value="Mecanic" style="swimlane;fontStyle=1;align=center;verticalAlign=top;childLayout=stackLayout;horizontal=1;startSize=26;horizontalStack=0;resizeParent=1;resizeParentMax=0;resizeLast=0;collapsible=1;marginBottom=0;whiteSpace=wrap;html=1;strokeColor=#0F8B8D;fontColor=#143642;fillColor=#FAE5C7;rounded=1;" vertex="1" parent="WIyWlLk6GJQsqaUBKTNV-1">
          <mxGeometry x="1995" y="596" width="160" height="164" as="geometry" />
        </mxCell>
        <mxCell id="zjAkS0u6og-Pdvrt3DcL-242" value="+ field: type" style="text;strokeColor=none;fillColor=none;align=left;verticalAlign=top;spacingLeft=4;spacingRight=4;overflow=hidden;rotatable=0;points=[[0,0.5],[1,0.5]];portConstraint=eastwest;whiteSpace=wrap;html=1;fontColor=#143642;" vertex="1" parent="zjAkS0u6og-Pdvrt3DcL-241">
          <mxGeometry y="26" width="160" height="26" as="geometry" />
        </mxCell>
        <mxCell id="zjAkS0u6og-Pdvrt3DcL-243" value="" style="line;strokeWidth=1;fillColor=none;align=left;verticalAlign=middle;spacingTop=-1;spacingLeft=3;spacingRight=3;rotatable=0;labelPosition=right;points=[];portConstraint=eastwest;strokeColor=inherit;fontColor=#143642;" vertex="1" parent="zjAkS0u6og-Pdvrt3DcL-241">
          <mxGeometry y="52" width="160" height="8" as="geometry" />
        </mxCell>
        <mxCell id="zjAkS0u6og-Pdvrt3DcL-244" value="+ Mecanic(RoleType)" style="text;strokeColor=none;fillColor=none;align=left;verticalAlign=top;spacingLeft=4;spacingRight=4;overflow=hidden;rotatable=0;points=[[0,0.5],[1,0.5]];portConstraint=eastwest;whiteSpace=wrap;html=1;fontColor=#143642;" vertex="1" parent="zjAkS0u6og-Pdvrt3DcL-241">
          <mxGeometry y="60" width="160" height="26" as="geometry" />
        </mxCell>
        <mxCell id="zjAkS0u6og-Pdvrt3DcL-292" value="- calculateBill(int)" style="text;strokeColor=none;fillColor=none;align=left;verticalAlign=top;spacingLeft=4;spacingRight=4;overflow=hidden;rotatable=0;points=[[0,0.5],[1,0.5]];portConstraint=eastwest;whiteSpace=wrap;html=1;fontColor=#143642;" vertex="1" parent="zjAkS0u6og-Pdvrt3DcL-241">
          <mxGeometry y="86" width="160" height="26" as="geometry" />
        </mxCell>
        <mxCell id="zjAkS0u6og-Pdvrt3DcL-293" value="+ repare(vehicle)" style="text;strokeColor=none;fillColor=none;align=left;verticalAlign=top;spacingLeft=4;spacingRight=4;overflow=hidden;rotatable=0;points=[[0,0.5],[1,0.5]];portConstraint=eastwest;whiteSpace=wrap;html=1;fontColor=#143642;" vertex="1" parent="zjAkS0u6og-Pdvrt3DcL-241">
          <mxGeometry y="112" width="160" height="26" as="geometry" />
        </mxCell>
        <mxCell id="zjAkS0u6og-Pdvrt3DcL-294" value="+ giveBill(): int" style="text;strokeColor=none;fillColor=none;align=left;verticalAlign=top;spacingLeft=4;spacingRight=4;overflow=hidden;rotatable=0;points=[[0,0.5],[1,0.5]];portConstraint=eastwest;whiteSpace=wrap;html=1;fontColor=#143642;" vertex="1" parent="zjAkS0u6og-Pdvrt3DcL-241">
          <mxGeometry y="138" width="160" height="26" as="geometry" />
        </mxCell>
        <mxCell id="zjAkS0u6og-Pdvrt3DcL-245" value="&lt;i&gt;Role&lt;/i&gt;" style="swimlane;fontStyle=0;childLayout=stackLayout;horizontal=1;startSize=26;fillColor=none;horizontalStack=0;resizeParent=1;resizeParentMax=0;resizeLast=0;collapsible=1;marginBottom=0;whiteSpace=wrap;html=1;strokeColor=#0F8B8D;fontColor=#143642;rounded=1;" vertex="1" parent="WIyWlLk6GJQsqaUBKTNV-1">
          <mxGeometry x="1770.5" y="416" width="151" height="112" as="geometry">
            <mxRectangle x="1720" y="417" width="60" height="26" as="alternateBounds" />
          </mxGeometry>
        </mxCell>
        <mxCell id="zjAkS0u6og-Pdvrt3DcL-278" value="roleType: RoleType" style="text;strokeColor=none;fillColor=none;align=left;verticalAlign=top;spacingLeft=4;spacingRight=4;overflow=hidden;rotatable=0;points=[[0,0.5],[1,0.5]];portConstraint=eastwest;whiteSpace=wrap;html=1;fontColor=#143642;" vertex="1" parent="zjAkS0u6og-Pdvrt3DcL-245">
          <mxGeometry y="26" width="151" height="26" as="geometry" />
        </mxCell>
        <mxCell id="zjAkS0u6og-Pdvrt3DcL-277" value="" style="line;strokeWidth=1;fillColor=none;align=left;verticalAlign=middle;spacingTop=-1;spacingLeft=3;spacingRight=3;rotatable=0;labelPosition=right;points=[];portConstraint=eastwest;strokeColor=inherit;fontColor=#143642;" vertex="1" parent="zjAkS0u6og-Pdvrt3DcL-245">
          <mxGeometry y="52" width="151" height="8" as="geometry" />
        </mxCell>
        <mxCell id="zjAkS0u6og-Pdvrt3DcL-260" value="+ Role(RoleType)" style="text;strokeColor=none;fillColor=none;align=left;verticalAlign=top;spacingLeft=4;spacingRight=4;overflow=hidden;rotatable=0;points=[[0,0.5],[1,0.5]];portConstraint=eastwest;whiteSpace=wrap;html=1;fontColor=#143642;" vertex="1" parent="zjAkS0u6og-Pdvrt3DcL-245">
          <mxGeometry y="60" width="151" height="26" as="geometry" />
        </mxCell>
        <mxCell id="zjAkS0u6og-Pdvrt3DcL-285" value="- setRoleType(RoleType)" style="text;strokeColor=none;fillColor=none;align=left;verticalAlign=top;spacingLeft=4;spacingRight=4;overflow=hidden;rotatable=0;points=[[0,0.5],[1,0.5]];portConstraint=eastwest;whiteSpace=wrap;html=1;fontColor=#143642;" vertex="1" parent="zjAkS0u6og-Pdvrt3DcL-245">
          <mxGeometry y="86" width="151" height="26" as="geometry" />
        </mxCell>
        <mxCell id="zjAkS0u6og-Pdvrt3DcL-252" value="" style="endArrow=block;endSize=16;endFill=0;html=1;rounded=0;strokeColor=#A8201A;fontSize=12;fontColor=#143642;curved=1;fillColor=#FAE5C7;" edge="1" parent="WIyWlLk6GJQsqaUBKTNV-1" source="zjAkS0u6og-Pdvrt3DcL-233" target="zjAkS0u6og-Pdvrt3DcL-245">
          <mxGeometry width="160" relative="1" as="geometry">
            <mxPoint x="1786" y="520" as="sourcePoint" />
            <mxPoint x="1928" y="466" as="targetPoint" />
          </mxGeometry>
        </mxCell>
        <mxCell id="zjAkS0u6og-Pdvrt3DcL-253" value="" style="endArrow=block;endSize=16;endFill=0;html=1;rounded=0;strokeColor=#A8201A;fontSize=12;fontColor=#143642;curved=1;fillColor=#FAE5C7;" edge="1" parent="WIyWlLk6GJQsqaUBKTNV-1" source="zjAkS0u6og-Pdvrt3DcL-237" target="zjAkS0u6og-Pdvrt3DcL-245">
          <mxGeometry width="160" relative="1" as="geometry">
            <mxPoint x="1991" y="411" as="sourcePoint" />
            <mxPoint x="1870" y="438" as="targetPoint" />
            <Array as="points">
              <mxPoint x="2123" y="487" />
            </Array>
          </mxGeometry>
        </mxCell>
        <mxCell id="zjAkS0u6og-Pdvrt3DcL-254" value="" style="endArrow=block;endSize=16;endFill=0;html=1;rounded=0;strokeColor=#A8201A;fontSize=12;fontColor=#143642;curved=1;fillColor=#FAE5C7;" edge="1" parent="WIyWlLk6GJQsqaUBKTNV-1" source="zjAkS0u6og-Pdvrt3DcL-241" target="zjAkS0u6og-Pdvrt3DcL-245">
          <mxGeometry width="160" relative="1" as="geometry">
            <mxPoint x="2001" y="421" as="sourcePoint" />
            <mxPoint x="1880" y="448" as="targetPoint" />
            <Array as="points">
              <mxPoint x="1905" y="547" />
            </Array>
          </mxGeometry>
        </mxCell>
        <mxCell id="zjAkS0u6og-Pdvrt3DcL-279" value="&amp;lt;&amp;lt;enumeration&amp;gt;&amp;gt;&lt;div&gt;RoleType&lt;/div&gt;" style="swimlane;fontStyle=0;childLayout=stackLayout;horizontal=1;startSize=45;fillColor=none;horizontalStack=0;resizeParent=1;resizeParentMax=0;resizeLast=0;collapsible=1;marginBottom=0;whiteSpace=wrap;html=1;strokeColor=#0F8B8D;fontColor=#143642;rounded=1;arcSize=18;" vertex="1" parent="WIyWlLk6GJQsqaUBKTNV-1">
          <mxGeometry x="1776" y="229" width="140" height="123" as="geometry">
            <mxRectangle x="1764" y="230" width="130" height="45" as="alternateBounds" />
          </mxGeometry>
        </mxCell>
        <mxCell id="zjAkS0u6og-Pdvrt3DcL-280" value="ADMIN" style="text;strokeColor=none;fillColor=none;align=left;verticalAlign=top;spacingLeft=4;spacingRight=4;overflow=hidden;rotatable=0;points=[[0,0.5],[1,0.5]];portConstraint=eastwest;whiteSpace=wrap;html=1;fontColor=#143642;" vertex="1" parent="zjAkS0u6og-Pdvrt3DcL-279">
          <mxGeometry y="45" width="140" height="26" as="geometry" />
        </mxCell>
        <mxCell id="zjAkS0u6og-Pdvrt3DcL-281" value="MECANIC" style="text;strokeColor=none;fillColor=none;align=left;verticalAlign=top;spacingLeft=4;spacingRight=4;overflow=hidden;rotatable=0;points=[[0,0.5],[1,0.5]];portConstraint=eastwest;whiteSpace=wrap;html=1;fontColor=#143642;" vertex="1" parent="zjAkS0u6og-Pdvrt3DcL-279">
          <mxGeometry y="71" width="140" height="26" as="geometry" />
        </mxCell>
        <mxCell id="zjAkS0u6og-Pdvrt3DcL-282" value="MANTAINER" style="text;strokeColor=none;fillColor=none;align=left;verticalAlign=top;spacingLeft=4;spacingRight=4;overflow=hidden;rotatable=0;points=[[0,0.5],[1,0.5]];portConstraint=eastwest;whiteSpace=wrap;html=1;fontColor=#143642;" vertex="1" parent="zjAkS0u6og-Pdvrt3DcL-279">
          <mxGeometry y="97" width="140" height="26" as="geometry" />
        </mxCell>
        <mxCell id="zjAkS0u6og-Pdvrt3DcL-283" value="Use" style="endArrow=open;endSize=12;dashed=1;html=1;rounded=0;strokeColor=#A8201A;fontSize=12;fontColor=#143642;curved=1;fillColor=#FAE5C7;exitX=0.5;exitY=0;exitDx=0;exitDy=0;" edge="1" parent="WIyWlLk6GJQsqaUBKTNV-1" source="zjAkS0u6og-Pdvrt3DcL-245" target="zjAkS0u6og-Pdvrt3DcL-279">
          <mxGeometry width="160" relative="1" as="geometry">
            <mxPoint x="1785" y="569" as="sourcePoint" />
            <mxPoint x="1945" y="569" as="targetPoint" />
          </mxGeometry>
        </mxCell>
        <mxCell id="zjAkS0u6og-Pdvrt3DcL-301" value="&amp;lt;&amp;lt;enumeration&amp;gt;&amp;gt;&lt;div&gt;TarifType&lt;/div&gt;" style="swimlane;fontStyle=0;childLayout=stackLayout;horizontal=1;startSize=45;fillColor=none;horizontalStack=0;resizeParent=1;resizeParentMax=0;resizeLast=0;collapsible=1;marginBottom=0;whiteSpace=wrap;html=1;strokeColor=#0F8B8D;fontColor=#143642;rounded=1;arcSize=18;" vertex="1" parent="WIyWlLk6GJQsqaUBKTNV-1">
          <mxGeometry x="972" y="441" width="140" height="97" as="geometry">
            <mxRectangle x="1764" y="230" width="130" height="45" as="alternateBounds" />
          </mxGeometry>
        </mxCell>
        <mxCell id="zjAkS0u6og-Pdvrt3DcL-302" value="STANDARD" style="text;strokeColor=none;fillColor=none;align=left;verticalAlign=top;spacingLeft=4;spacingRight=4;overflow=hidden;rotatable=0;points=[[0,0.5],[1,0.5]];portConstraint=eastwest;whiteSpace=wrap;html=1;fontColor=#143642;" vertex="1" parent="zjAkS0u6og-Pdvrt3DcL-301">
          <mxGeometry y="45" width="140" height="26" as="geometry" />
        </mxCell>
        <mxCell id="zjAkS0u6og-Pdvrt3DcL-303" value="PREMIUM" style="text;strokeColor=none;fillColor=none;align=left;verticalAlign=top;spacingLeft=4;spacingRight=4;overflow=hidden;rotatable=0;points=[[0,0.5],[1,0.5]];portConstraint=eastwest;whiteSpace=wrap;html=1;fontColor=#143642;" vertex="1" parent="zjAkS0u6og-Pdvrt3DcL-301">
          <mxGeometry y="71" width="140" height="26" as="geometry" />
        </mxCell>
        <mxCell id="zjAkS0u6og-Pdvrt3DcL-305" value="Use" style="endArrow=open;endSize=12;dashed=1;html=1;rounded=0;strokeColor=#A8201A;fontSize=12;fontColor=#143642;curved=1;fillColor=#FAE5C7;exitX=0.5;exitY=0;exitDx=0;exitDy=0;" edge="1" parent="WIyWlLk6GJQsqaUBKTNV-1" source="N519lql4RB3Tmnlweifi-33" target="zjAkS0u6og-Pdvrt3DcL-301">
          <mxGeometry width="160" relative="1" as="geometry">
            <mxPoint x="940" y="489" as="sourcePoint" />
            <mxPoint x="1100" y="489" as="targetPoint" />
          </mxGeometry>
        </mxCell>
        <mxCell id="zjAkS0u6og-Pdvrt3DcL-321" value="&amp;lt;&amp;lt;enumeration&amp;gt;&amp;gt;&lt;div&gt;IssueType&lt;/div&gt;" style="swimlane;fontStyle=0;childLayout=stackLayout;horizontal=1;startSize=45;fillColor=none;horizontalStack=0;resizeParent=1;resizeParentMax=0;resizeLast=0;collapsible=1;marginBottom=0;whiteSpace=wrap;html=1;strokeColor=#0F8B8D;fontColor=#143642;rounded=1;arcSize=18;" vertex="1" parent="WIyWlLk6GJQsqaUBKTNV-1">
          <mxGeometry x="846" y="-450" width="140" height="149" as="geometry">
            <mxRectangle x="1764" y="230" width="130" height="45" as="alternateBounds" />
          </mxGeometry>
        </mxCell>
        <mxCell id="zjAkS0u6og-Pdvrt3DcL-322" value="BASE" style="text;strokeColor=none;fillColor=none;align=left;verticalAlign=top;spacingLeft=4;spacingRight=4;overflow=hidden;rotatable=0;points=[[0,0.5],[1,0.5]];portConstraint=eastwest;whiteSpace=wrap;html=1;fontColor=#143642;" vertex="1" parent="zjAkS0u6og-Pdvrt3DcL-321">
          <mxGeometry y="45" width="140" height="26" as="geometry" />
        </mxCell>
        <mxCell id="zjAkS0u6og-Pdvrt3DcL-323" value="MOTORBIKE" style="text;strokeColor=none;fillColor=none;align=left;verticalAlign=top;spacingLeft=4;spacingRight=4;overflow=hidden;rotatable=0;points=[[0,0.5],[1,0.5]];portConstraint=eastwest;whiteSpace=wrap;html=1;fontColor=#143642;" vertex="1" parent="zjAkS0u6og-Pdvrt3DcL-321">
          <mxGeometry y="71" width="140" height="26" as="geometry" />
        </mxCell>
        <mxCell id="zjAkS0u6og-Pdvrt3DcL-324" value="BIKE" style="text;strokeColor=none;fillColor=none;align=left;verticalAlign=top;spacingLeft=4;spacingRight=4;overflow=hidden;rotatable=0;points=[[0,0.5],[1,0.5]];portConstraint=eastwest;whiteSpace=wrap;html=1;fontColor=#143642;" vertex="1" parent="zjAkS0u6og-Pdvrt3DcL-321">
          <mxGeometry y="97" width="140" height="26" as="geometry" />
        </mxCell>
        <mxCell id="zjAkS0u6og-Pdvrt3DcL-325" value="SCOOTER" style="text;strokeColor=none;fillColor=none;align=left;verticalAlign=top;spacingLeft=4;spacingRight=4;overflow=hidden;rotatable=0;points=[[0,0.5],[1,0.5]];portConstraint=eastwest;whiteSpace=wrap;html=1;fontColor=#143642;" vertex="1" parent="zjAkS0u6og-Pdvrt3DcL-321">
          <mxGeometry y="123" width="140" height="26" as="geometry" />
        </mxCell>
        <mxCell id="zjAkS0u6og-Pdvrt3DcL-332" value="Rent" style="swimlane;fontStyle=1;align=center;verticalAlign=top;childLayout=stackLayout;horizontal=1;startSize=26;horizontalStack=0;resizeParent=1;resizeParentMax=0;resizeLast=0;collapsible=1;marginBottom=0;whiteSpace=wrap;html=1;rounded=1;labelBackgroundColor=none;fillColor=#FAE5C7;strokeColor=#0F8B8D;fontColor=#143642;" vertex="1" parent="WIyWlLk6GJQsqaUBKTNV-1">
          <mxGeometry x="1520" y="-223" width="129" height="172" as="geometry" />
        </mxCell>
        <mxCell id="zjAkS0u6og-Pdvrt3DcL-340" value="- user: User" style="text;strokeColor=none;fillColor=none;align=left;verticalAlign=top;spacingLeft=4;spacingRight=4;overflow=hidden;rotatable=0;points=[[0,0.5],[1,0.5]];portConstraint=eastwest;whiteSpace=wrap;html=1;rounded=1;labelBackgroundColor=none;fontColor=#143642;" vertex="1" parent="zjAkS0u6og-Pdvrt3DcL-332">
          <mxGeometry y="26" width="129" height="26" as="geometry" />
        </mxCell>
        <mxCell id="zjAkS0u6og-Pdvrt3DcL-341" value="- vehicle: Vehicle" style="text;strokeColor=none;fillColor=none;align=left;verticalAlign=top;spacingLeft=4;spacingRight=4;overflow=hidden;rotatable=0;points=[[0,0.5],[1,0.5]];portConstraint=eastwest;whiteSpace=wrap;html=1;rounded=1;labelBackgroundColor=none;fontColor=#143642;" vertex="1" parent="zjAkS0u6og-Pdvrt3DcL-332">
          <mxGeometry y="52" width="129" height="26" as="geometry" />
        </mxCell>
        <mxCell id="zjAkS0u6og-Pdvrt3DcL-346" value="- expense: int" style="text;strokeColor=none;fillColor=none;align=left;verticalAlign=top;spacingLeft=4;spacingRight=4;overflow=hidden;rotatable=0;points=[[0,0.5],[1,0.5]];portConstraint=eastwest;whiteSpace=wrap;html=1;rounded=1;labelBackgroundColor=none;fontColor=#143642;" vertex="1" parent="zjAkS0u6og-Pdvrt3DcL-332">
          <mxGeometry y="78" width="129" height="26" as="geometry" />
        </mxCell>
        <mxCell id="zjAkS0u6og-Pdvrt3DcL-334" value="" style="line;strokeWidth=1;fillColor=none;align=left;verticalAlign=middle;spacingTop=-1;spacingLeft=3;spacingRight=3;rotatable=0;labelPosition=right;points=[];portConstraint=eastwest;strokeColor=#0F8B8D;rounded=1;labelBackgroundColor=none;fontColor=#143642;" vertex="1" parent="zjAkS0u6og-Pdvrt3DcL-332">
          <mxGeometry y="104" width="129" height="8" as="geometry" />
        </mxCell>
        <mxCell id="zjAkS0u6og-Pdvrt3DcL-335" value="+ Rent(User, Vehicle)" style="text;strokeColor=none;fillColor=none;align=left;verticalAlign=top;spacingLeft=4;spacingRight=4;overflow=hidden;rotatable=0;points=[[0,0.5],[1,0.5]];portConstraint=eastwest;whiteSpace=wrap;html=1;rounded=1;labelBackgroundColor=none;fontColor=#143642;" vertex="1" parent="zjAkS0u6og-Pdvrt3DcL-332">
          <mxGeometry y="112" width="129" height="30" as="geometry" />
        </mxCell>
        <mxCell id="zjAkS0u6og-Pdvrt3DcL-342" value="- setUser(User)" style="text;strokeColor=none;fillColor=none;align=left;verticalAlign=top;spacingLeft=4;spacingRight=4;overflow=hidden;rotatable=0;points=[[0,0.5],[1,0.5]];portConstraint=eastwest;whiteSpace=wrap;html=1;rounded=1;labelBackgroundColor=none;fontColor=#143642;" vertex="1" parent="zjAkS0u6og-Pdvrt3DcL-332">
          <mxGeometry y="142" width="129" height="30" as="geometry" />
        </mxCell>
        <mxCell id="zjAkS0u6og-Pdvrt3DcL-358" value="Supply" style="swimlane;fontStyle=1;align=center;verticalAlign=top;childLayout=stackLayout;horizontal=1;startSize=26;horizontalStack=0;resizeParent=1;resizeParentMax=0;resizeLast=0;collapsible=1;marginBottom=0;whiteSpace=wrap;html=1;rounded=1;labelBackgroundColor=none;fillColor=#FAE5C7;strokeColor=#0F8B8D;fontColor=#143642;" vertex="1" parent="WIyWlLk6GJQsqaUBKTNV-1">
          <mxGeometry x="1668" y="-223" width="129" height="176" as="geometry" />
        </mxCell>
        <mxCell id="zjAkS0u6og-Pdvrt3DcL-359" value="- user: User" style="text;strokeColor=none;fillColor=none;align=left;verticalAlign=top;spacingLeft=4;spacingRight=4;overflow=hidden;rotatable=0;points=[[0,0.5],[1,0.5]];portConstraint=eastwest;whiteSpace=wrap;html=1;rounded=1;labelBackgroundColor=none;fontColor=#143642;" vertex="1" parent="zjAkS0u6og-Pdvrt3DcL-358">
          <mxGeometry y="26" width="129" height="26" as="geometry" />
        </mxCell>
        <mxCell id="zjAkS0u6og-Pdvrt3DcL-360" value="- base: Base" style="text;strokeColor=none;fillColor=none;align=left;verticalAlign=top;spacingLeft=4;spacingRight=4;overflow=hidden;rotatable=0;points=[[0,0.5],[1,0.5]];portConstraint=eastwest;whiteSpace=wrap;html=1;rounded=1;labelBackgroundColor=none;fontColor=#143642;" vertex="1" parent="zjAkS0u6og-Pdvrt3DcL-358">
          <mxGeometry y="52" width="129" height="26" as="geometry" />
        </mxCell>
        <mxCell id="zjAkS0u6og-Pdvrt3DcL-364" value="" style="line;strokeWidth=1;fillColor=none;align=left;verticalAlign=middle;spacingTop=-1;spacingLeft=3;spacingRight=3;rotatable=0;labelPosition=right;points=[];portConstraint=eastwest;strokeColor=#0F8B8D;rounded=1;labelBackgroundColor=none;fontColor=#143642;" vertex="1" parent="zjAkS0u6og-Pdvrt3DcL-358">
          <mxGeometry y="78" width="129" height="8" as="geometry" />
        </mxCell>
        <mxCell id="zjAkS0u6og-Pdvrt3DcL-365" value="+ Supply(User, Base)" style="text;strokeColor=none;fillColor=none;align=left;verticalAlign=top;spacingLeft=4;spacingRight=4;overflow=hidden;rotatable=0;points=[[0,0.5],[1,0.5]];portConstraint=eastwest;whiteSpace=wrap;html=1;rounded=1;labelBackgroundColor=none;fontColor=#143642;" vertex="1" parent="zjAkS0u6og-Pdvrt3DcL-358">
          <mxGeometry y="86" width="129" height="30" as="geometry" />
        </mxCell>
        <mxCell id="zjAkS0u6og-Pdvrt3DcL-366" value="- setUser(User)" style="text;strokeColor=none;fillColor=none;align=left;verticalAlign=top;spacingLeft=4;spacingRight=4;overflow=hidden;rotatable=0;points=[[0,0.5],[1,0.5]];portConstraint=eastwest;whiteSpace=wrap;html=1;rounded=1;labelBackgroundColor=none;fontColor=#143642;" vertex="1" parent="zjAkS0u6og-Pdvrt3DcL-358">
          <mxGeometry y="116" width="129" height="30" as="geometry" />
        </mxCell>
        <mxCell id="zjAkS0u6og-Pdvrt3DcL-367" value="- setVehicle(Vehicle)" style="text;strokeColor=none;fillColor=none;align=left;verticalAlign=top;spacingLeft=4;spacingRight=4;overflow=hidden;rotatable=0;points=[[0,0.5],[1,0.5]];portConstraint=eastwest;whiteSpace=wrap;html=1;rounded=1;labelBackgroundColor=none;fontColor=#143642;" vertex="1" parent="zjAkS0u6og-Pdvrt3DcL-358">
          <mxGeometry y="146" width="129" height="30" as="geometry" />
        </mxCell>
        <mxCell id="zjAkS0u6og-Pdvrt3DcL-371" value="&lt;i&gt;Usage&lt;/i&gt;" style="swimlane;fontStyle=0;childLayout=stackLayout;horizontal=1;startSize=26;fillColor=none;horizontalStack=0;resizeParent=1;resizeParentMax=0;resizeLast=0;collapsible=1;marginBottom=0;whiteSpace=wrap;html=1;strokeColor=#0F8B8D;fontColor=#143642;rounded=1;" vertex="1" parent="WIyWlLk6GJQsqaUBKTNV-1">
          <mxGeometry x="1571" y="-494" width="140" height="172" as="geometry" />
        </mxCell>
        <mxCell id="zjAkS0u6og-Pdvrt3DcL-348" value="- startDate: Date" style="text;strokeColor=none;fillColor=none;align=left;verticalAlign=top;spacingLeft=4;spacingRight=4;overflow=hidden;rotatable=0;points=[[0,0.5],[1,0.5]];portConstraint=eastwest;whiteSpace=wrap;html=1;rounded=1;labelBackgroundColor=none;fontColor=#143642;" vertex="1" parent="zjAkS0u6og-Pdvrt3DcL-371">
          <mxGeometry y="26" width="140" height="26" as="geometry" />
        </mxCell>
        <mxCell id="zjAkS0u6og-Pdvrt3DcL-353" value="- endDate: Date" style="text;strokeColor=none;fillColor=none;align=left;verticalAlign=top;spacingLeft=4;spacingRight=4;overflow=hidden;rotatable=0;points=[[0,0.5],[1,0.5]];portConstraint=eastwest;whiteSpace=wrap;html=1;rounded=1;labelBackgroundColor=none;fontColor=#143642;" vertex="1" parent="zjAkS0u6og-Pdvrt3DcL-371">
          <mxGeometry y="52" width="140" height="26" as="geometry" />
        </mxCell>
        <mxCell id="zjAkS0u6og-Pdvrt3DcL-374" value="" style="line;strokeWidth=1;fillColor=none;align=left;verticalAlign=middle;spacingTop=-1;spacingLeft=3;spacingRight=3;rotatable=0;labelPosition=right;points=[];portConstraint=eastwest;strokeColor=inherit;fontColor=#143642;" vertex="1" parent="zjAkS0u6og-Pdvrt3DcL-371">
          <mxGeometry y="78" width="140" height="8" as="geometry" />
        </mxCell>
        <mxCell id="zjAkS0u6og-Pdvrt3DcL-376" value="+ Usage()" style="text;strokeColor=none;fillColor=none;align=left;verticalAlign=top;spacingLeft=4;spacingRight=4;overflow=hidden;rotatable=0;points=[[0,0.5],[1,0.5]];portConstraint=eastwest;whiteSpace=wrap;html=1;fontColor=#143642;" vertex="1" parent="zjAkS0u6og-Pdvrt3DcL-371">
          <mxGeometry y="86" width="140" height="26" as="geometry" />
        </mxCell>
        <mxCell id="zjAkS0u6og-Pdvrt3DcL-349" value="- setStartDate(Date)" style="text;strokeColor=none;fillColor=none;align=left;verticalAlign=top;spacingLeft=4;spacingRight=4;overflow=hidden;rotatable=0;points=[[0,0.5],[1,0.5]];portConstraint=eastwest;whiteSpace=wrap;html=1;rounded=1;labelBackgroundColor=none;fontColor=#143642;" vertex="1" parent="zjAkS0u6og-Pdvrt3DcL-371">
          <mxGeometry y="112" width="140" height="30" as="geometry" />
        </mxCell>
        <mxCell id="zjAkS0u6og-Pdvrt3DcL-354" value="- setEndDate(Date)" style="text;strokeColor=none;fillColor=none;align=left;verticalAlign=top;spacingLeft=4;spacingRight=4;overflow=hidden;rotatable=0;points=[[0,0.5],[1,0.5]];portConstraint=eastwest;whiteSpace=wrap;html=1;rounded=1;labelBackgroundColor=none;fontColor=#143642;" vertex="1" parent="zjAkS0u6og-Pdvrt3DcL-371">
          <mxGeometry y="142" width="140" height="30" as="geometry" />
        </mxCell>
        <mxCell id="zjAkS0u6og-Pdvrt3DcL-396" value="Use" style="endArrow=open;endSize=12;dashed=1;html=1;rounded=0;strokeColor=#A8201A;fontSize=12;fontColor=#143642;curved=1;fillColor=#FAE5C7;exitX=0.5;exitY=0;exitDx=0;exitDy=0;" edge="1" parent="WIyWlLk6GJQsqaUBKTNV-1" source="zjAkS0u6og-Pdvrt3DcL-114" target="zjAkS0u6og-Pdvrt3DcL-321">
          <mxGeometry width="160" relative="1" as="geometry">
            <mxPoint x="1001" y="-291" as="sourcePoint" />
            <mxPoint x="1161" y="-291" as="targetPoint" />
          </mxGeometry>
        </mxCell>
        <mxCell id="zjAkS0u6og-Pdvrt3DcL-397" value="&lt;i&gt;Base&lt;/i&gt;" style="swimlane;fontStyle=0;childLayout=stackLayout;horizontal=1;startSize=26;fillColor=none;horizontalStack=0;resizeParent=1;resizeParentMax=0;resizeLast=0;collapsible=1;marginBottom=0;whiteSpace=wrap;html=1;strokeColor=#0F8B8D;fontColor=#143642;rounded=1;" vertex="1" parent="WIyWlLk6GJQsqaUBKTNV-1">
          <mxGeometry x="628" y="1276" width="151" height="320" as="geometry" />
        </mxCell>
        <mxCell id="zjAkS0u6og-Pdvrt3DcL-398" value="- location: Coordinate" style="text;strokeColor=none;fillColor=none;align=left;verticalAlign=top;spacingLeft=4;spacingRight=4;overflow=hidden;rotatable=0;points=[[0,0.5],[1,0.5]];portConstraint=eastwest;whiteSpace=wrap;html=1;rounded=1;labelBackgroundColor=none;fontColor=#143642;" vertex="1" parent="zjAkS0u6og-Pdvrt3DcL-397">
          <mxGeometry y="26" width="151" height="26" as="geometry" />
        </mxCell>
        <mxCell id="zjAkS0u6og-Pdvrt3DcL-399" value="- availability: boolean" style="text;strokeColor=none;fillColor=none;align=left;verticalAlign=top;spacingLeft=4;spacingRight=4;overflow=hidden;rotatable=0;points=[[0,0.5],[1,0.5]];portConstraint=eastwest;whiteSpace=wrap;html=1;rounded=1;labelBackgroundColor=none;fontColor=#143642;" vertex="1" parent="zjAkS0u6og-Pdvrt3DcL-397">
          <mxGeometry y="52" width="151" height="26" as="geometry" />
        </mxCell>
        <mxCell id="zjAkS0u6og-Pdvrt3DcL-41" value="- totalOfVehicles: number" style="text;strokeColor=none;fillColor=none;align=left;verticalAlign=top;spacingLeft=4;spacingRight=4;overflow=hidden;rotatable=0;points=[[0,0.5],[1,0.5]];portConstraint=eastwest;whiteSpace=wrap;html=1;rounded=1;labelBackgroundColor=none;fontColor=#143642;" vertex="1" parent="zjAkS0u6og-Pdvrt3DcL-397">
          <mxGeometry y="78" width="151" height="26" as="geometry" />
        </mxCell>
        <mxCell id="zjAkS0u6og-Pdvrt3DcL-43" value="- emptySpaces: number" style="text;strokeColor=none;fillColor=none;align=left;verticalAlign=top;spacingLeft=4;spacingRight=4;overflow=hidden;rotatable=0;points=[[0,0.5],[1,0.5]];portConstraint=eastwest;whiteSpace=wrap;html=1;rounded=1;labelBackgroundColor=none;fontColor=#143642;" vertex="1" parent="zjAkS0u6og-Pdvrt3DcL-397">
          <mxGeometry y="104" width="151" height="26" as="geometry" />
        </mxCell>
        <mxCell id="zjAkS0u6og-Pdvrt3DcL-42" value="- ocupySpaces: number" style="text;strokeColor=none;fillColor=none;align=left;verticalAlign=top;spacingLeft=4;spacingRight=4;overflow=hidden;rotatable=0;points=[[0,0.5],[1,0.5]];portConstraint=eastwest;whiteSpace=wrap;html=1;rounded=1;labelBackgroundColor=none;fontColor=#143642;" vertex="1" parent="zjAkS0u6og-Pdvrt3DcL-397">
          <mxGeometry y="130" width="151" height="26" as="geometry" />
        </mxCell>
        <mxCell id="zjAkS0u6og-Pdvrt3DcL-404" value="" style="line;strokeWidth=1;fillColor=none;align=left;verticalAlign=middle;spacingTop=-1;spacingLeft=3;spacingRight=3;rotatable=0;labelPosition=right;points=[];portConstraint=eastwest;strokeColor=#0F8B8D;rounded=1;labelBackgroundColor=none;fontColor=#143642;" vertex="1" parent="zjAkS0u6og-Pdvrt3DcL-397">
          <mxGeometry y="156" width="151" height="8" as="geometry" />
        </mxCell>
        <mxCell id="N519lql4RB3Tmnlweifi-153" value="+ Base()" style="text;strokeColor=none;fillColor=none;align=left;verticalAlign=top;spacingLeft=4;spacingRight=4;overflow=hidden;rotatable=0;points=[[0,0.5],[1,0.5]];portConstraint=eastwest;whiteSpace=wrap;html=1;rounded=1;labelBackgroundColor=none;fontColor=#143642;" parent="zjAkS0u6og-Pdvrt3DcL-397" vertex="1">
          <mxGeometry y="164" width="151" height="26" as="geometry" />
        </mxCell>
        <mxCell id="zjAkS0u6og-Pdvrt3DcL-40" value="+ takeVehicle(number)" style="text;strokeColor=none;fillColor=none;align=left;verticalAlign=top;spacingLeft=4;spacingRight=4;overflow=hidden;rotatable=0;points=[[0,0.5],[1,0.5]];portConstraint=eastwest;whiteSpace=wrap;html=1;rounded=1;labelBackgroundColor=none;fontColor=#143642;" vertex="1" parent="zjAkS0u6og-Pdvrt3DcL-397">
          <mxGeometry y="190" width="151" height="26" as="geometry" />
        </mxCell>
        <mxCell id="zjAkS0u6og-Pdvrt3DcL-411" value="- setErrorInBase()" style="text;strokeColor=none;fillColor=none;align=left;verticalAlign=top;spacingLeft=4;spacingRight=4;overflow=hidden;rotatable=0;points=[[0,0.5],[1,0.5]];portConstraint=eastwest;whiteSpace=wrap;html=1;rounded=1;labelBackgroundColor=none;fontColor=#143642;" vertex="1" parent="zjAkS0u6og-Pdvrt3DcL-397">
          <mxGeometry y="216" width="151" height="26" as="geometry" />
        </mxCell>
        <mxCell id="zjAkS0u6og-Pdvrt3DcL-44" value="- setSpaces(number)" style="text;strokeColor=none;fillColor=none;align=left;verticalAlign=top;spacingLeft=4;spacingRight=4;overflow=hidden;rotatable=0;points=[[0,0.5],[1,0.5]];portConstraint=eastwest;whiteSpace=wrap;html=1;rounded=1;labelBackgroundColor=none;fontColor=#143642;" vertex="1" parent="zjAkS0u6og-Pdvrt3DcL-397">
          <mxGeometry y="242" width="151" height="26" as="geometry" />
        </mxCell>
        <mxCell id="zjAkS0u6og-Pdvrt3DcL-45" value="- notifyError(admin)" style="text;strokeColor=none;fillColor=none;align=left;verticalAlign=top;spacingLeft=4;spacingRight=4;overflow=hidden;rotatable=0;points=[[0,0.5],[1,0.5]];portConstraint=eastwest;whiteSpace=wrap;html=1;rounded=1;labelBackgroundColor=none;fontColor=#143642;" vertex="1" parent="zjAkS0u6og-Pdvrt3DcL-397">
          <mxGeometry y="268" width="151" height="26" as="geometry" />
        </mxCell>
        <mxCell id="zjAkS0u6og-Pdvrt3DcL-408" value="- setAvailability()" style="text;strokeColor=none;fillColor=none;align=left;verticalAlign=top;spacingLeft=4;spacingRight=4;overflow=hidden;rotatable=0;points=[[0,0.5],[1,0.5]];portConstraint=eastwest;whiteSpace=wrap;html=1;rounded=1;labelBackgroundColor=none;fontColor=#143642;" vertex="1" parent="zjAkS0u6og-Pdvrt3DcL-397">
          <mxGeometry y="294" width="151" height="26" as="geometry" />
        </mxCell>
        <mxCell id="zjAkS0u6og-Pdvrt3DcL-412" value="Scooter" style="swimlane;fontStyle=1;align=center;verticalAlign=top;childLayout=stackLayout;horizontal=1;startSize=26;horizontalStack=0;resizeParent=1;resizeParentMax=0;resizeLast=0;collapsible=1;marginBottom=0;whiteSpace=wrap;html=1;rounded=1;labelBackgroundColor=none;fillColor=#FAE5C7;strokeColor=#0F8B8D;fontColor=#143642;" vertex="1" parent="WIyWlLk6GJQsqaUBKTNV-1">
          <mxGeometry x="445" y="1276" width="160" height="86" as="geometry" />
        </mxCell>
        <mxCell id="zjAkS0u6og-Pdvrt3DcL-413" value="- base: Base" style="text;strokeColor=none;fillColor=none;align=left;verticalAlign=top;spacingLeft=4;spacingRight=4;overflow=hidden;rotatable=0;points=[[0,0.5],[1,0.5]];portConstraint=eastwest;whiteSpace=wrap;html=1;rounded=1;labelBackgroundColor=none;fontColor=#143642;" vertex="1" parent="zjAkS0u6og-Pdvrt3DcL-412">
          <mxGeometry y="26" width="160" height="26" as="geometry" />
        </mxCell>
        <mxCell id="zjAkS0u6og-Pdvrt3DcL-414" value="" style="line;strokeWidth=1;fillColor=none;align=left;verticalAlign=middle;spacingTop=-1;spacingLeft=3;spacingRight=3;rotatable=0;labelPosition=right;points=[];portConstraint=eastwest;strokeColor=#0F8B8D;rounded=1;labelBackgroundColor=none;fontColor=#143642;" vertex="1" parent="zjAkS0u6og-Pdvrt3DcL-412">
          <mxGeometry y="52" width="160" height="8" as="geometry" />
        </mxCell>
        <mxCell id="zjAkS0u6og-Pdvrt3DcL-415" value="+ method(type): type" style="text;strokeColor=none;fillColor=none;align=left;verticalAlign=top;spacingLeft=4;spacingRight=4;overflow=hidden;rotatable=0;points=[[0,0.5],[1,0.5]];portConstraint=eastwest;whiteSpace=wrap;html=1;rounded=1;labelBackgroundColor=none;fontColor=#143642;" vertex="1" parent="zjAkS0u6og-Pdvrt3DcL-412">
          <mxGeometry y="60" width="160" height="26" as="geometry" />
        </mxCell>
        <mxCell id="zjAkS0u6og-Pdvrt3DcL-416" value="Bike" style="swimlane;fontStyle=1;align=center;verticalAlign=top;childLayout=stackLayout;horizontal=1;startSize=26;horizontalStack=0;resizeParent=1;resizeParentMax=0;resizeLast=0;collapsible=1;marginBottom=0;whiteSpace=wrap;html=1;rounded=1;labelBackgroundColor=none;fillColor=#FAE5C7;strokeColor=#0F8B8D;fontColor=#143642;" vertex="1" parent="WIyWlLk6GJQsqaUBKTNV-1">
          <mxGeometry x="812" y="1276" width="160" height="86" as="geometry" />
        </mxCell>
        <mxCell id="zjAkS0u6og-Pdvrt3DcL-417" value="- base: Base" style="text;strokeColor=none;fillColor=none;align=left;verticalAlign=top;spacingLeft=4;spacingRight=4;overflow=hidden;rotatable=0;points=[[0,0.5],[1,0.5]];portConstraint=eastwest;whiteSpace=wrap;html=1;rounded=1;labelBackgroundColor=none;fontColor=#143642;" vertex="1" parent="zjAkS0u6og-Pdvrt3DcL-416">
          <mxGeometry y="26" width="160" height="26" as="geometry" />
        </mxCell>
        <mxCell id="zjAkS0u6og-Pdvrt3DcL-418" value="" style="line;strokeWidth=1;fillColor=none;align=left;verticalAlign=middle;spacingTop=-1;spacingLeft=3;spacingRight=3;rotatable=0;labelPosition=right;points=[];portConstraint=eastwest;strokeColor=#0F8B8D;rounded=1;labelBackgroundColor=none;fontColor=#143642;" vertex="1" parent="zjAkS0u6og-Pdvrt3DcL-416">
          <mxGeometry y="52" width="160" height="8" as="geometry" />
        </mxCell>
        <mxCell id="zjAkS0u6og-Pdvrt3DcL-419" value="+ method(type): type" style="text;strokeColor=none;fillColor=none;align=left;verticalAlign=top;spacingLeft=4;spacingRight=4;overflow=hidden;rotatable=0;points=[[0,0.5],[1,0.5]];portConstraint=eastwest;whiteSpace=wrap;html=1;rounded=1;labelBackgroundColor=none;fontColor=#143642;" vertex="1" parent="zjAkS0u6og-Pdvrt3DcL-416">
          <mxGeometry y="60" width="160" height="26" as="geometry" />
        </mxCell>
        <mxCell id="zjAkS0u6og-Pdvrt3DcL-420" value="" style="endArrow=block;endSize=16;endFill=0;html=1;rounded=0;strokeColor=#A8201A;fontSize=12;fontColor=#143642;curved=1;fillColor=#FAE5C7;exitX=0.5;exitY=0;exitDx=0;exitDy=0;" edge="1" parent="WIyWlLk6GJQsqaUBKTNV-1" source="zjAkS0u6og-Pdvrt3DcL-416" target="zjAkS0u6og-Pdvrt3DcL-397">
          <mxGeometry width="160" relative="1" as="geometry">
            <mxPoint x="963" y="1372" as="sourcePoint" />
            <mxPoint x="1123" y="1372" as="targetPoint" />
            <Array as="points">
              <mxPoint x="919" y="1227" />
              <mxPoint x="775" y="1211" />
            </Array>
          </mxGeometry>
        </mxCell>
        <mxCell id="zjAkS0u6og-Pdvrt3DcL-421" value="" style="endArrow=block;endSize=16;endFill=0;html=1;rounded=0;strokeColor=#A8201A;fontSize=12;fontColor=#143642;curved=1;fillColor=#FAE5C7;" edge="1" parent="WIyWlLk6GJQsqaUBKTNV-1" source="zjAkS0u6og-Pdvrt3DcL-412" target="zjAkS0u6og-Pdvrt3DcL-397">
          <mxGeometry width="160" relative="1" as="geometry">
            <mxPoint x="885" y="1354" as="sourcePoint" />
            <mxPoint x="833" y="1392" as="targetPoint" />
            <Array as="points">
              <mxPoint x="553" y="1231" />
              <mxPoint x="701" y="1231" />
            </Array>
          </mxGeometry>
        </mxCell>
        <mxCell id="zjAkS0u6og-Pdvrt3DcL-422" value="&amp;lt;&amp;lt;enumeration&amp;gt;&amp;gt;&lt;div&gt;Size&lt;/div&gt;" style="swimlane;fontStyle=0;childLayout=stackLayout;horizontal=1;startSize=45;fillColor=none;horizontalStack=0;resizeParent=1;resizeParentMax=0;resizeLast=0;collapsible=1;marginBottom=0;whiteSpace=wrap;html=1;strokeColor=#0F8B8D;fontColor=#143642;rounded=1;arcSize=18;" vertex="1" parent="WIyWlLk6GJQsqaUBKTNV-1">
          <mxGeometry x="1764" y="1417" width="140" height="97" as="geometry">
            <mxRectangle x="1764" y="230" width="130" height="45" as="alternateBounds" />
          </mxGeometry>
        </mxCell>
        <mxCell id="zjAkS0u6og-Pdvrt3DcL-423" value="BIG" style="text;strokeColor=none;fillColor=none;align=left;verticalAlign=top;spacingLeft=4;spacingRight=4;overflow=hidden;rotatable=0;points=[[0,0.5],[1,0.5]];portConstraint=eastwest;whiteSpace=wrap;html=1;fontColor=#143642;" vertex="1" parent="zjAkS0u6og-Pdvrt3DcL-422">
          <mxGeometry y="45" width="140" height="26" as="geometry" />
        </mxCell>
        <mxCell id="zjAkS0u6og-Pdvrt3DcL-424" value="SMALL" style="text;strokeColor=none;fillColor=none;align=left;verticalAlign=top;spacingLeft=4;spacingRight=4;overflow=hidden;rotatable=0;points=[[0,0.5],[1,0.5]];portConstraint=eastwest;whiteSpace=wrap;html=1;fontColor=#143642;" vertex="1" parent="zjAkS0u6og-Pdvrt3DcL-422">
          <mxGeometry y="71" width="140" height="26" as="geometry" />
        </mxCell>
        <mxCell id="zjAkS0u6og-Pdvrt3DcL-425" value="&lt;i&gt;Motor&lt;/i&gt;" style="swimlane;fontStyle=0;childLayout=stackLayout;horizontal=1;startSize=26;fillColor=none;horizontalStack=0;resizeParent=1;resizeParentMax=0;resizeLast=0;collapsible=1;marginBottom=0;whiteSpace=wrap;html=1;strokeColor=#0F8B8D;fontColor=#143642;rounded=1;arcSize=18;" vertex="1" parent="WIyWlLk6GJQsqaUBKTNV-1">
          <mxGeometry x="1761" y="1280" width="140" height="86" as="geometry">
            <mxRectangle x="1764" y="230" width="130" height="45" as="alternateBounds" />
          </mxGeometry>
        </mxCell>
        <mxCell id="zjAkS0u6og-Pdvrt3DcL-53" value="- size: Size" style="text;strokeColor=none;fillColor=none;align=left;verticalAlign=top;spacingLeft=4;spacingRight=4;overflow=hidden;rotatable=0;points=[[0,0.5],[1,0.5]];portConstraint=eastwest;whiteSpace=wrap;html=1;rounded=1;labelBackgroundColor=none;fontColor=#143642;" vertex="1" parent="zjAkS0u6og-Pdvrt3DcL-425">
          <mxGeometry y="26" width="140" height="26" as="geometry" />
        </mxCell>
        <mxCell id="zjAkS0u6og-Pdvrt3DcL-54" value="" style="line;strokeWidth=1;fillColor=none;align=left;verticalAlign=middle;spacingTop=-1;spacingLeft=3;spacingRight=3;rotatable=0;labelPosition=right;points=[];portConstraint=eastwest;strokeColor=#0F8B8D;rounded=1;labelBackgroundColor=none;fontColor=#143642;" vertex="1" parent="zjAkS0u6og-Pdvrt3DcL-425">
          <mxGeometry y="52" width="140" height="8" as="geometry" />
        </mxCell>
        <mxCell id="zjAkS0u6og-Pdvrt3DcL-55" value="+ method(type): type" style="text;strokeColor=none;fillColor=none;align=left;verticalAlign=top;spacingLeft=4;spacingRight=4;overflow=hidden;rotatable=0;points=[[0,0.5],[1,0.5]];portConstraint=eastwest;whiteSpace=wrap;html=1;rounded=1;labelBackgroundColor=none;fontColor=#143642;" vertex="1" parent="zjAkS0u6og-Pdvrt3DcL-425">
          <mxGeometry y="60" width="140" height="26" as="geometry" />
        </mxCell>
        <mxCell id="zjAkS0u6og-Pdvrt3DcL-428" value="Use" style="endArrow=open;endSize=12;dashed=1;html=1;rounded=0;strokeColor=#A8201A;fontSize=12;fontColor=#143642;curved=1;fillColor=#FAE5C7;" edge="1" parent="WIyWlLk6GJQsqaUBKTNV-1" source="zjAkS0u6og-Pdvrt3DcL-425" target="zjAkS0u6og-Pdvrt3DcL-422">
          <mxGeometry width="160" relative="1" as="geometry">
            <mxPoint x="1665" y="1254" as="sourcePoint" />
            <mxPoint x="1820" y="1304" as="targetPoint" />
          </mxGeometry>
        </mxCell>
        <mxCell id="zjAkS0u6og-Pdvrt3DcL-429" value="" style="endArrow=block;endSize=16;endFill=0;html=1;rounded=0;strokeColor=#A8201A;fontSize=12;fontColor=#143642;curved=1;fillColor=#FAE5C7;" edge="1" parent="WIyWlLk6GJQsqaUBKTNV-1" source="zjAkS0u6og-Pdvrt3DcL-58" target="zjAkS0u6og-Pdvrt3DcL-425">
          <mxGeometry width="160" relative="1" as="geometry">
            <mxPoint x="1660" y="1304" as="sourcePoint" />
            <mxPoint x="1820" y="1304" as="targetPoint" />
          </mxGeometry>
        </mxCell>
        <mxCell id="zjAkS0u6og-Pdvrt3DcL-430" value="" style="endArrow=block;endSize=16;endFill=0;html=1;rounded=0;strokeColor=#A8201A;fontSize=12;fontColor=#143642;curved=1;fillColor=#FAE5C7;" edge="1" parent="WIyWlLk6GJQsqaUBKTNV-1" source="zjAkS0u6og-Pdvrt3DcL-62" target="zjAkS0u6og-Pdvrt3DcL-425">
          <mxGeometry width="160" relative="1" as="geometry">
            <mxPoint x="2010" y="1307" as="sourcePoint" />
            <mxPoint x="1911" y="1322" as="targetPoint" />
          </mxGeometry>
        </mxCell>
        <mxCell id="zjAkS0u6og-Pdvrt3DcL-434" value="" style="endArrow=block;endSize=16;endFill=0;html=1;rounded=0;strokeColor=#A8201A;fontSize=12;fontColor=#143642;curved=1;fillColor=#FAE5C7;exitX=0.5;exitY=0;exitDx=0;exitDy=0;entryX=0.5;entryY=0;entryDx=0;entryDy=0;" edge="1" parent="WIyWlLk6GJQsqaUBKTNV-1" source="N519lql4RB3Tmnlweifi-180" target="zjAkS0u6og-Pdvrt3DcL-174">
          <mxGeometry width="160" relative="1" as="geometry">
            <mxPoint x="1278" y="1359" as="sourcePoint" />
            <mxPoint x="1438" y="1359" as="targetPoint" />
            <Array as="points">
              <mxPoint x="1339" y="1194" />
            </Array>
          </mxGeometry>
        </mxCell>
        <mxCell id="zjAkS0u6og-Pdvrt3DcL-435" value="" style="endArrow=block;endSize=16;endFill=0;html=1;rounded=0;strokeColor=#A8201A;fontSize=12;fontColor=#143642;curved=1;fillColor=#FAE5C7;exitX=0.5;exitY=0;exitDx=0;exitDy=0;entryX=0.75;entryY=0;entryDx=0;entryDy=0;" edge="1" parent="WIyWlLk6GJQsqaUBKTNV-1" source="N519lql4RB3Tmnlweifi-176" target="zjAkS0u6og-Pdvrt3DcL-174">
          <mxGeometry width="160" relative="1" as="geometry">
            <mxPoint x="1610" y="1290" as="sourcePoint" />
            <mxPoint x="1084" y="1290" as="targetPoint" />
            <Array as="points">
              <mxPoint x="1349" y="1204" />
            </Array>
          </mxGeometry>
        </mxCell>
        <mxCell id="zjAkS0u6og-Pdvrt3DcL-436" value="" style="endArrow=block;endSize=16;endFill=0;html=1;rounded=0;strokeColor=#A8201A;fontSize=12;fontColor=#143642;curved=1;fillColor=#FAE5C7;exitX=0.5;exitY=0;exitDx=0;exitDy=0;entryX=0.25;entryY=0;entryDx=0;entryDy=0;" edge="1" parent="WIyWlLk6GJQsqaUBKTNV-1" source="N519lql4RB3Tmnlweifi-172" target="zjAkS0u6og-Pdvrt3DcL-174">
          <mxGeometry width="160" relative="1" as="geometry">
            <mxPoint x="1433" y="1290" as="sourcePoint" />
            <mxPoint x="1122" y="1290" as="targetPoint" />
            <Array as="points">
              <mxPoint x="1359" y="1214" />
            </Array>
          </mxGeometry>
        </mxCell>
        <mxCell id="zjAkS0u6og-Pdvrt3DcL-442" value="" style="endArrow=diamondThin;endFill=1;endSize=24;html=1;rounded=0;strokeColor=#A8201A;fontSize=12;fontColor=#143642;curved=1;fillColor=#FAE5C7;" edge="1" parent="WIyWlLk6GJQsqaUBKTNV-1" source="N519lql4RB3Tmnlweifi-33" target="N519lql4RB3Tmnlweifi-12">
          <mxGeometry width="160" relative="1" as="geometry">
            <mxPoint x="940" y="746" as="sourcePoint" />
            <mxPoint x="1100" y="746" as="targetPoint" />
          </mxGeometry>
        </mxCell>
        <mxCell id="zjAkS0u6og-Pdvrt3DcL-443" value="" style="endArrow=diamondThin;endFill=1;endSize=24;html=1;rounded=0;strokeColor=#A8201A;fontSize=12;fontColor=#143642;curved=1;fillColor=#FAE5C7;" edge="1" parent="WIyWlLk6GJQsqaUBKTNV-1" source="zjAkS0u6og-Pdvrt3DcL-245" target="N519lql4RB3Tmnlweifi-16">
          <mxGeometry width="160" relative="1" as="geometry">
            <mxPoint x="1442" y="578" as="sourcePoint" />
            <mxPoint x="1602" y="578" as="targetPoint" />
          </mxGeometry>
        </mxCell>
      </root>
    </mxGraphModel>
  </diagram>
</mxfile>
